<svg width="704" height="750" viewBox="0 0 704 750" fill="none" xmlns="http://www.w3.org/2000/svg">
<path d="M12.5 50C12.5 -108.782 141.218 -237.5 300 -237.5H787.5V337.5H300C141.218 337.5 12.5 208.782 12.5 50Z" stroke="black" stroke-width="25"/>
<path d="M12.5 50C12.5 -108.782 141.218 -237.5 300 -237.5H787.5V337.5H300C141.218 337.5 12.5 208.782 12.5 50Z" stroke="black" stroke-width="25"/>
<path d="M97.5 50C97.5 -61.8377 188.162 -152.5 300 -152.5L787.5 -152.5V252.5L300 252.5C188.162 252.5 97.5 161.838 97.5 50Z" stroke="black" stroke-width="25"/>
<path d="M97.5 50C97.5 -61.8377 188.162 -152.5 300 -152.5L787.5 -152.5V252.5L300 252.5C188.162 252.5 97.5 161.838 97.5 50Z" stroke="black" stroke-width="25"/>
<path d="M182.5 50C182.5 -14.8935 235.107 -67.5 300 -67.5L787.5 -67.5V167.5L300 167.5C235.107 167.5 182.5 114.893 182.5 50Z" stroke="black" stroke-width="25"/>
<path d="M182.5 50C182.5 -14.8935 235.107 -67.5 300 -67.5L787.5 -67.5V167.5L300 167.5C235.107 167.5 182.5 114.893 182.5 50Z" stroke="black" stroke-width="25"/>
<rect y="50" width="23" height="700" fill="black"/>
<rect x="85" y="50" width="23" height="700" fill="black"/>
<rect x="170" y="50" width="23" height="700" fill="black"/>
</svg>
