<svg width="624" height="177" viewBox="0 0 624 177" fill="none" xmlns="http://www.w3.org/2000/svg">
<path d="M34.8049 25.6415C25.581 36.087 32.7955 44.6328 50.9717 44.9318L49.212 48.3509C26.0524 48.0777 16.2577 38.3113 27.3181 26.4008C35.4247 17.6658 53.9727 8.52208 70.4634 5.97207L69.0232 8.84775C55.4619 11.6423 41.5742 17.9915 34.8049 25.6415Z" fill="white"/>
<path d="M25.0117 26.2929C13.1325 39.0993 23.5243 49.6518 48.393 49.9497L45.9384 54.725C45.0463 54.7527 44.1787 54.7527 43.2848 54.7527C14.9176 54.7527 4.08323 41.0247 17.2988 26.1038C27.8617 14.1389 51.7667 4.15469 71.9986 2.90548L70.8586 5.1852C52.6571 7.59959 33.6891 16.9324 25.0117 26.2929Z" fill="white"/>
<path d="M7.15779 26.2384C19.7789 12.2115 48.0703 1.46898 73.2637 0.438477L72.3699 2.09264C50.5999 3.25972 26.3248 13.3518 15.2146 25.9137C1.33036 41.5938 12.5881 56.3524 42.3938 56.3524C43.3357 56.3524 44.2016 56.3266 45.1443 56.2989L42.5414 61.3445C39.1694 61.589 27.9623 62.2661 17.2737 58.6598C-0.380515 52.6907 -4.62015 39.2874 7.15779 26.2384Z" fill="white"/>
<path d="M55.7087 48.1866C54.0485 48.2687 52.2853 48.3232 51.0719 48.3509L52.6842 44.9576C53.8722 44.9318 55.5603 44.905 56.8487 44.8496L55.7087 48.1866Z" fill="white"/>
<path d="M51.5183 60.53C49.4339 60.7459 46.8553 60.9904 45.0965 61.1556L47.3773 56.2447C48.9154 56.1626 51.1954 56.0279 53.0799 55.8913L51.5183 60.53Z" fill="white"/>
<path d="M53.6013 54.4257C52.1121 54.5365 50.2546 54.6435 48.0968 54.7256L50.3035 50.0038C52.1121 49.978 53.7985 49.8959 55.1637 49.8138L53.6013 54.4257Z" fill="white"/>
<path d="M34.2793 25.7926C25.0554 36.2372 32.2699 44.784 50.4461 45.0819L48.6864 48.4991C25.525 48.2298 15.732 38.4624 26.7907 26.5519C34.8973 17.816 53.4462 8.67321 69.9378 6.12225L68.4975 8.99889C54.9354 11.7934 41.0485 18.1417 34.2793 25.7926Z" fill="white"/>
<path d="M24.4844 26.4434C12.607 39.2488 22.997 49.8022 47.8675 50.1012L45.4129 54.8755C44.5191 54.9023 43.6523 54.9023 42.7576 54.9023C14.3912 54.9023 3.55769 41.1752 16.7742 26.2534C27.3353 14.2893 51.2403 4.30612 71.4731 3.05691L70.3322 5.33472C52.1315 7.75006 33.1636 17.0829 24.4844 26.4434Z" fill="white"/>
<path d="M6.63212 26.3891C19.2524 12.3632 47.5446 1.61971 72.738 0.588242L71.8442 2.2424C50.0742 3.40948 25.7991 13.5016 14.688 26.0635C0.804687 41.7455 12.0624 56.5021 41.8682 56.5021C42.8083 56.5021 43.6768 56.4764 44.6187 56.4487L42.0166 61.4942C38.642 61.7406 27.4366 62.4187 16.7481 58.8086C-0.907927 52.8404 -5.14757 39.44 6.63212 26.3891Z" fill="white"/>
<path d="M55.1827 48.3371C53.519 48.4193 51.7592 48.4737 50.5442 48.4995L52.1573 45.11C53.3462 45.0823 55.0326 45.0546 56.3227 45.0002L55.1827 48.3371Z" fill="white"/>
<path d="M50.9925 60.6821C48.9081 60.8989 46.3295 61.1424 44.5698 61.3048L46.8498 56.3949C48.3896 56.3127 50.6678 56.1781 52.5533 56.0415L50.9925 60.6821Z" fill="white"/>
<path d="M53.074 54.5755C51.5866 54.6863 49.7282 54.7951 47.5704 54.8763L49.7771 50.1564C51.5866 50.1268 53.273 50.0466 54.6365 49.9654L53.074 54.5755Z" fill="white"/>
<path d="M181.028 7.13342L180.006 12.5882H188.237L179.947 55.4398H188.838L197.127 12.5882H205.536L206.558 7.13342H181.028Z" fill="white"/>
<path d="M231.787 9.76117C230.226 7.65868 227.283 6.60791 222.959 6.60791C218.872 6.60791 215.57 7.72404 212.987 10.0246C210.463 12.2588 208.781 15.5447 207.939 19.818L201.034 55.4402H209.922L214.969 29.4787H221.996L216.95 55.4402H225.902L232.809 19.818C233.649 15.2159 233.349 11.93 231.787 9.76117ZM224.28 17.7808L223.257 23.0375H216.228L217.251 17.7808C217.611 15.7418 218.151 14.3632 218.813 13.5076C219.472 12.7202 220.495 12.2588 221.875 12.2588C223.138 12.2588 223.919 12.7202 224.28 13.5076C224.699 14.3632 224.699 15.8091 224.28 17.7808Z" fill="white"/>
<path d="M259.481 7.13352L252.751 41.9011C252.211 44.6611 251.612 46.5675 250.89 47.5539C250.229 48.6056 249.267 49.1315 248.068 49.1315C246.745 49.1315 246.025 48.5393 245.723 47.4885C245.485 46.3695 245.605 44.5294 246.145 41.9011L252.871 7.13352H243.981L237.194 42.0972C236.293 46.7646 236.654 50.2486 238.274 52.6145C239.958 55.0458 242.72 56.2273 246.684 56.2273C250.769 56.2273 254.073 55.0458 256.536 52.7462C258.939 50.4456 260.681 46.8953 261.583 42.0972L268.369 7.13352H259.481Z" fill="white"/>
<path d="M330.722 11.0755C329.16 8.11835 326.156 6.60709 321.772 6.60709C317.448 6.60709 313.843 8.25005 310.962 11.536C308.197 14.8873 305.794 21.4611 303.871 31.3852C301.948 41.1785 301.77 47.7504 303.33 51.168C304.894 54.5184 307.836 56.2277 312.161 56.2277C316.487 56.2277 320.032 54.5184 322.913 51.168C325.736 47.7504 328.08 41.1785 330.004 31.3852C332.044 20.8698 332.284 14.0999 330.722 11.0755ZM322.854 17.9781C322.614 21.0659 321.953 25.5343 320.811 31.3852C319.669 37.2341 318.649 41.7044 317.686 44.7933C316.726 47.9475 315.344 49.4597 313.483 49.4597C311.68 49.4597 310.841 48.0792 310.962 45.3191C311.081 42.4927 311.801 37.8263 313.062 31.3852C314.144 25.6007 315.225 21.1967 316.186 18.0425C317.207 14.8873 318.649 13.3106 320.452 13.3106C322.313 13.3106 323.155 14.8873 322.854 17.9781Z" fill="white"/>
<path d="M102.817 29.4791L104.018 23.0371L104.861 18.8311C105.281 16.5315 106.001 14.8876 106.902 13.9676C107.802 13.0476 109.243 12.588 111.166 12.588H117.533L118.616 7.13329H109.906C105.4 7.13329 102.218 7.98601 100.234 9.6309C98.2496 11.3392 96.8103 14.6252 95.8482 19.5541L91.2836 43.0833C90.4427 47.2249 90.8047 50.3128 92.3046 52.3508C93.8062 54.388 96.4501 55.4397 100.173 55.4397H110.386L111.406 49.9849H104.8C102.577 49.9849 101.136 49.3937 100.473 48.1449C99.8716 46.8951 99.8127 44.859 100.354 41.9662L102.817 29.4791Z" fill="white"/>
<path d="M298.706 9.95784C297.386 8.05338 294.861 7.13336 291.137 7.13336H277.562L268.19 55.4398H277.08L281.406 33.093H285.13C286.212 33.093 286.992 33.4227 287.474 34.0793C287.954 34.6705 288.135 35.5915 287.893 36.8403L284.29 55.4398H292.758L296.363 37.1028C296.784 35.0003 296.542 33.2256 295.702 31.7788C294.801 30.3339 293.298 29.4792 291.258 29.2168C293.479 28.4938 295.282 27.244 296.664 25.4694C298.103 23.6947 299.066 21.3298 299.606 18.438C300.387 14.6252 300.088 11.7979 298.706 9.95784ZM290.357 20.08C289.815 22.7747 289.155 24.682 288.373 25.7318C287.532 26.8508 286.453 27.3767 285.13 27.3767H282.548L285.43 12.4564H287.772C289.334 12.4564 290.297 12.9823 290.656 14.034C291.016 15.0848 290.956 17.1228 290.357 20.08Z" fill="white"/>
<path d="M133.092 14.0995C134.053 13.1785 135.437 12.72 137.419 12.72H143.785L144.864 7.26328H136.095C131.65 7.26328 128.406 8.11889 126.424 9.76089C124.503 11.4711 123 14.7561 122.039 19.686L117.474 43.2152C116.694 47.3558 117.054 50.4456 118.556 52.4818C120.056 54.5179 122.64 55.5697 126.424 55.5697H136.577L137.657 50.1168H130.989C128.827 50.1168 127.385 49.5246 126.726 48.2758C126.065 47.028 126.065 44.9899 126.605 42.0972L129.007 29.6101H139.579L140.841 23.169H130.27L131.109 18.964C131.53 16.6615 132.192 15.0195 133.092 14.0995Z" fill="white"/>
<path d="M173.399 9.82795C172.199 8.11866 170.156 7.26305 167.332 7.26305H159.643H152.556L143.184 55.5694H152.075L160.365 12.9822H161.927C163.429 12.9822 164.447 13.3763 165.049 14.0993C165.591 14.8222 165.71 15.873 165.471 17.3198L158.021 55.5694H166.912L174.421 16.991C175.022 13.9022 174.661 11.5363 173.399 9.82795Z" fill="white"/>
<path d="M181.028 7.26315L180.006 12.7198H188.237L179.947 55.5695H188.838L197.127 12.7198H205.536L206.558 7.26315H181.028Z" fill="white"/>
<path d="M205.536 12.6065H197.127L188.837 55.4582H179.947L188.236 12.6065H180.007L181.028 7.15176H206.558L205.536 12.6065Z" fill="white"/>
<path d="M205.536 12.7385H197.127L188.837 55.5882H179.947L188.236 12.7385H180.007L181.028 7.28185H206.558L205.536 12.7385Z" fill="white"/>
<mask id="path-24-outside-1_160_43" maskUnits="userSpaceOnUse" x="6" y="64" width="619" height="88" fill="black">
<rect fill="white" x="6" y="64" width="619" height="88"/>
<path d="M10.925 148C10.0817 148 9.39167 147.732 8.855 147.195C8.31833 146.658 8.05 145.968 8.05 145.125V70.375C8.05 69.5317 8.31833 68.8417 8.855 68.305C9.39167 67.7683 10.0817 67.5 10.925 67.5H40.825C48.3383 67.5 54.74 68.7267 60.03 71.18C65.32 73.5567 69.3833 77.0833 72.22 81.76C75.0567 86.36 76.59 92.0717 76.82 98.895C76.8967 102.268 76.935 105.22 76.935 107.75C76.935 110.28 76.8967 113.193 76.82 116.49C76.5133 123.62 74.98 129.523 72.22 134.2C69.5367 138.877 65.5883 142.365 60.375 144.665C55.2383 146.888 48.9133 148 41.4 148H10.925ZM28.635 131.44H40.825C44.1217 131.44 46.8433 130.942 48.99 129.945C51.2133 128.872 52.8617 127.223 53.935 125C55.085 122.777 55.6983 119.863 55.775 116.26C55.9283 114.037 56.005 112.043 56.005 110.28C56.0817 108.517 56.0817 106.753 56.005 104.99C56.005 103.227 55.9283 101.272 55.775 99.125C55.6217 93.9117 54.2417 90.1167 51.635 87.74C49.105 85.2867 45.31 84.06 40.25 84.06H28.635V131.44ZM93.2443 148C92.401 148 91.711 147.732 91.1743 147.195C90.6377 146.658 90.3693 145.968 90.3693 145.125V70.375C90.3693 69.5317 90.6377 68.8417 91.1743 68.305C91.711 67.7683 92.401 67.5 93.2443 67.5H146.949C147.793 67.5 148.483 67.7683 149.019 68.305C149.556 68.8417 149.824 69.5317 149.824 70.375V81.185C149.824 82.0283 149.556 82.7183 149.019 83.255C148.483 83.7917 147.793 84.06 146.949 84.06H110.264V99.585H144.419C145.263 99.585 145.953 99.8917 146.489 100.505C147.026 101.042 147.294 101.732 147.294 102.575V112.58C147.294 113.347 147.026 114.037 146.489 114.65C145.953 115.187 145.263 115.455 144.419 115.455H110.264V131.44H147.869C148.713 131.44 149.403 131.708 149.939 132.245C150.476 132.782 150.744 133.472 150.744 134.315V145.125C150.744 145.968 150.476 146.658 149.939 147.195C149.403 147.732 148.713 148 147.869 148H93.2443ZM193.832 149.15C186.165 149.15 179.802 148.077 174.742 145.93C169.682 143.707 165.848 140.832 163.242 137.305C160.635 133.778 159.255 130.022 159.102 126.035C159.102 125.422 159.332 124.885 159.792 124.425C160.328 123.888 160.942 123.62 161.632 123.62H176.122C177.195 123.62 178 123.812 178.537 124.195C179.15 124.578 179.687 125.077 180.147 125.69C180.76 126.84 181.603 127.952 182.677 129.025C183.827 130.098 185.283 130.98 187.047 131.67C188.887 132.283 191.148 132.59 193.832 132.59C198.278 132.59 201.613 131.9 203.837 130.52C206.137 129.14 207.287 127.262 207.287 124.885C207.287 123.198 206.673 121.818 205.447 120.745C204.22 119.595 202.227 118.598 199.467 117.755C196.783 116.835 193.18 115.915 188.657 114.995C182.83 113.768 177.847 112.197 173.707 110.28C169.643 108.287 166.538 105.718 164.392 102.575C162.245 99.355 161.172 95.3683 161.172 90.615C161.172 85.9383 162.475 81.76 165.082 78.08C167.765 74.4 171.483 71.525 176.237 69.455C180.99 67.385 186.625 66.35 193.142 66.35C198.432 66.35 203.07 67.04 207.057 68.42C211.12 69.8 214.532 71.64 217.292 73.94C220.052 76.24 222.122 78.6933 223.502 81.3C224.958 83.83 225.725 86.3217 225.802 88.775C225.802 89.3883 225.572 89.9633 225.112 90.5C224.652 90.96 224.077 91.19 223.387 91.19H208.207C207.363 91.19 206.635 91.0367 206.022 90.73C205.408 90.4233 204.872 89.925 204.412 89.235C203.952 87.5483 202.725 86.0917 200.732 84.865C198.815 83.5617 196.285 82.91 193.142 82.91C189.768 82.91 187.123 83.5233 185.207 84.75C183.367 85.9 182.447 87.7017 182.447 90.155C182.447 91.6883 182.945 93.03 183.942 94.18C185.015 95.33 186.74 96.3267 189.117 97.17C191.57 98.0133 194.905 98.895 199.122 99.815C206.098 101.118 211.733 102.767 216.027 104.76C220.32 106.677 223.463 109.207 225.457 112.35C227.45 115.417 228.447 119.288 228.447 123.965C228.447 129.178 226.952 133.702 223.962 137.535C221.048 141.292 216.985 144.167 211.772 146.16C206.558 148.153 200.578 149.15 193.832 149.15ZM242.834 148C241.991 148 241.301 147.732 240.764 147.195C240.228 146.658 239.959 145.968 239.959 145.125V70.375C239.959 69.5317 240.228 68.8417 240.764 68.305C241.301 67.7683 241.991 67.5 242.834 67.5H277.909C284.503 67.5 289.908 68.42 294.124 70.26C298.341 72.1 301.446 74.745 303.439 78.195C305.509 81.5683 306.544 85.5933 306.544 90.27C306.544 93.03 306.008 95.4833 304.934 97.63C303.938 99.7 302.673 101.425 301.139 102.805C299.683 104.185 298.303 105.182 296.999 105.795C299.913 107.175 302.481 109.437 304.704 112.58C307.004 115.723 308.154 119.403 308.154 123.62C308.154 128.68 307.004 133.05 304.704 136.73C302.481 140.333 299.184 143.132 294.814 145.125C290.521 147.042 285.231 148 278.944 148H242.834ZM260.544 133.05H276.644C279.941 133.05 282.433 132.092 284.119 130.175C285.806 128.258 286.649 126.073 286.649 123.62C286.649 120.937 285.768 118.675 284.004 116.835C282.318 114.995 279.864 114.075 276.644 114.075H260.544V133.05ZM260.544 99.47H275.609C278.753 99.47 281.091 98.665 282.624 97.055C284.234 95.445 285.039 93.375 285.039 90.845C285.039 88.3917 284.234 86.3983 282.624 84.865C281.091 83.255 278.753 82.45 275.609 82.45H260.544V99.47ZM323.806 148C322.963 148 322.273 147.732 321.736 147.195C321.199 146.658 320.931 145.968 320.931 145.125V70.375C320.931 69.5317 321.199 68.8417 321.736 68.305C322.273 67.7683 322.963 67.5 323.806 67.5H355.086C364.976 67.5 372.758 69.8 378.431 74.4C384.181 78.9233 387.056 85.3633 387.056 93.72C387.056 99.1633 385.714 103.763 383.031 107.52C380.424 111.277 376.974 114.113 372.681 116.03L388.551 144.32C388.781 144.78 388.896 145.202 388.896 145.585C388.896 146.198 388.628 146.773 388.091 147.31C387.631 147.77 387.056 148 386.366 148H371.186C369.729 148 368.656 147.655 367.966 146.965C367.276 146.198 366.778 145.508 366.471 144.895L353.361 119.595H341.516V145.125C341.516 145.968 341.248 146.658 340.711 147.195C340.174 147.732 339.484 148 338.641 148H323.806ZM341.516 103.38H354.856C358.459 103.38 361.143 102.498 362.906 100.735C364.746 98.9717 365.666 96.5567 365.666 93.49C365.666 90.5 364.784 88.085 363.021 86.245C361.334 84.405 358.613 83.485 354.856 83.485H341.516V103.38ZM395.843 148C395.229 148 394.654 147.77 394.118 147.31C393.658 146.773 393.428 146.198 393.428 145.585C393.428 145.202 393.466 144.857 393.543 144.55L420.568 70.72C420.798 69.8767 421.258 69.1483 421.948 68.535C422.714 67.845 423.749 67.5 425.053 67.5H442.073C443.376 67.5 444.373 67.845 445.063 68.535C445.829 69.1483 446.328 69.8767 446.558 70.72L473.468 144.55C473.621 144.857 473.698 145.202 473.698 145.585C473.698 146.198 473.429 146.773 472.893 147.31C472.433 147.77 471.858 148 471.168 148H457.023C455.873 148 454.991 147.732 454.378 147.195C453.841 146.582 453.496 146.045 453.343 145.585L448.858 133.855H418.153L413.783 145.585C413.629 146.045 413.284 146.582 412.748 147.195C412.211 147.732 411.291 148 409.988 148H395.843ZM422.868 117.295H444.258L433.448 86.935L422.868 117.295ZM499.361 148C498.057 148 497.022 147.655 496.256 146.965C495.489 146.275 494.952 145.47 494.646 144.55L471.186 70.95C471.032 70.5667 470.956 70.2217 470.956 69.915C470.956 69.3017 471.186 68.765 471.646 68.305C472.182 67.7683 472.796 67.5 473.486 67.5H487.746C488.972 67.5 489.931 67.845 490.621 68.535C491.311 69.225 491.732 69.8767 491.886 70.49L508.101 123.62L524.431 70.49C524.661 69.8767 525.082 69.225 525.696 68.535C526.386 67.845 527.344 67.5 528.571 67.5H542.831C543.521 67.5 544.096 67.7683 544.556 68.305C545.092 68.765 545.361 69.3017 545.361 69.915C545.361 70.2217 545.284 70.5667 545.131 70.95L521.671 144.55C521.364 145.47 520.827 146.275 520.061 146.965C519.371 147.655 518.336 148 516.956 148H499.361ZM545.096 148C544.482 148 543.907 147.77 543.371 147.31C542.911 146.773 542.681 146.198 542.681 145.585C542.681 145.202 542.719 144.857 542.796 144.55L569.821 70.72C570.051 69.8767 570.511 69.1483 571.201 68.535C571.967 67.845 573.002 67.5 574.306 67.5H591.326C592.629 67.5 593.626 67.845 594.316 68.535C595.082 69.1483 595.581 69.8767 595.811 70.72L622.721 144.55C622.874 144.857 622.951 145.202 622.951 145.585C622.951 146.198 622.682 146.773 622.146 147.31C621.686 147.77 621.111 148 620.421 148H606.276C605.126 148 604.244 147.732 603.631 147.195C603.094 146.582 602.749 146.045 602.596 145.585L598.111 133.855H567.406L563.036 145.585C562.882 146.045 562.537 146.582 562.001 147.195C561.464 147.732 560.544 148 559.241 148H545.096ZM572.121 117.295H593.511L582.701 86.935L572.121 117.295Z"/>
</mask>
<path d="M8.855 147.195L10.2692 145.781H10.2692L8.855 147.195ZM8.855 68.305L10.2692 69.7192L10.2692 69.7192L8.855 68.305ZM60.03 71.18L59.1886 72.9944L59.1994 72.9994L59.2104 73.0043L60.03 71.18ZM72.22 81.76L70.51 82.7972L70.5138 82.8035L70.5177 82.8098L72.22 81.76ZM76.82 98.895L78.8195 98.8496L78.8192 98.8386L78.8189 98.8276L76.82 98.895ZM76.82 116.49L78.8182 116.576L78.819 116.556L78.8195 116.536L76.82 116.49ZM72.22 134.2L70.4976 133.183L70.4914 133.194L70.4853 133.205L72.22 134.2ZM60.375 144.665L61.1695 146.5L61.1823 146.495L60.375 144.665ZM28.635 131.44H26.635V133.44H28.635V131.44ZM48.99 129.945L49.8322 131.759L49.8459 131.753L49.8595 131.746L48.99 129.945ZM53.935 125L52.1586 124.081L52.1459 124.106L52.1339 124.131L53.935 125ZM55.775 116.26L53.7797 116.122L53.7765 116.17L53.7755 116.217L55.775 116.26ZM56.005 110.28L54.0069 110.193L54.005 110.237V110.28H56.005ZM56.005 104.99H54.005V105.033L54.0069 105.077L56.005 104.99ZM55.775 99.125L53.7759 99.1838L53.7771 99.2257L53.7801 99.2675L55.775 99.125ZM51.635 87.74L50.2427 89.1758L50.2648 89.1972L50.2875 89.2179L51.635 87.74ZM28.635 84.06V82.06H26.635V84.06H28.635ZM10.925 146C10.5475 146 10.3875 145.899 10.2692 145.781L7.44079 148.609C8.39586 149.564 9.61583 150 10.925 150V146ZM10.2692 145.781C10.151 145.663 10.05 145.502 10.05 145.125H6.05C6.05 146.434 6.48571 147.654 7.44079 148.609L10.2692 145.781ZM10.05 145.125V70.375H6.05V145.125H10.05ZM10.05 70.375C10.05 69.9975 10.151 69.8375 10.2692 69.7192L7.44079 66.8908C6.48571 67.8459 6.05 69.0658 6.05 70.375H10.05ZM10.2692 69.7192C10.3875 69.6009 10.5475 69.5 10.925 69.5V65.5C9.61583 65.5 8.39586 65.9357 7.44078 66.8908L10.2692 69.7192ZM10.925 69.5H40.825V65.5H10.925V69.5ZM40.825 69.5C48.1284 69.5 54.2267 70.6932 59.1886 72.9944L60.8715 69.3656C55.2533 66.7601 48.5483 65.5 40.825 65.5V69.5ZM59.2104 73.0043C64.1542 75.2255 67.8965 78.4885 70.51 82.7972L73.93 80.7228C70.8702 75.6782 66.4858 71.8878 60.8496 69.3557L59.2104 73.0043ZM70.5177 82.8098C73.1296 87.0454 74.5998 92.3967 74.8211 98.9624L78.8189 98.8276C78.5802 91.7467 76.9837 85.6746 73.9223 80.7102L70.5177 82.8098ZM74.8205 98.9404C74.8969 102.303 74.935 105.239 74.935 107.75H78.935C78.935 105.201 78.8964 102.233 78.8195 98.8496L74.8205 98.9404ZM74.935 107.75C74.935 110.261 74.8969 113.158 74.8205 116.443L78.8195 116.536C78.8964 113.229 78.935 110.299 78.935 107.75H74.935ZM74.8219 116.404C74.525 123.305 73.0465 128.865 70.4976 133.183L73.9424 135.217C76.9135 130.182 78.5017 123.935 78.8182 116.576L74.8219 116.404ZM70.4853 133.205C68.0267 137.49 64.4144 140.697 59.5677 142.835L61.1823 146.495C66.7622 144.033 71.0467 140.264 73.9547 135.195L70.4853 133.205ZM59.5806 142.83C54.7648 144.914 48.7285 146 41.4 146V150C49.0982 150 55.7119 148.863 61.1694 146.5L59.5806 142.83ZM41.4 146H10.925V150H41.4V146ZM28.635 133.44H40.825V129.44H28.635V133.44ZM40.825 133.44C44.3055 133.44 47.3393 132.916 49.8322 131.759L48.1478 128.131C46.3474 128.967 43.9378 129.44 40.825 129.44V133.44ZM49.8595 131.746C52.4897 130.476 54.4664 128.5 55.7361 125.869L52.1339 124.131C51.257 125.947 49.937 127.267 48.1205 128.144L49.8595 131.746ZM55.7114 125.919C57.0496 123.332 57.694 120.086 57.7745 116.303L53.7755 116.217C53.7026 119.64 53.1204 122.222 52.1586 124.081L55.7114 125.919ZM57.7703 116.398C57.926 114.14 58.005 112.099 58.005 110.28H54.005C54.005 111.987 53.9307 113.934 53.7797 116.122L57.7703 116.398ZM58.0031 110.367C58.0823 108.546 58.0823 106.724 58.0031 104.903L54.0069 105.077C54.081 106.782 54.081 108.488 54.0069 110.193L58.0031 110.367ZM58.005 104.99C58.005 103.17 57.9259 101.167 57.7699 98.9825L53.7801 99.2675C53.9307 101.377 54.005 103.283 54.005 104.99H58.005ZM57.7741 99.0662C57.6125 93.5701 56.1475 89.1478 52.9825 86.2621L50.2875 89.2179C52.3358 91.0855 53.6308 94.2532 53.7759 99.1838L57.7741 99.0662ZM53.0273 86.3042C49.9881 83.3571 45.6031 82.06 40.25 82.06V86.06C45.0169 86.06 48.2219 87.2162 50.2427 89.1758L53.0273 86.3042ZM40.25 82.06H28.635V86.06H40.25V82.06ZM26.635 84.06V131.44H30.635V84.06H26.635ZM91.1743 147.195L92.5885 145.781L91.1743 147.195ZM91.1743 68.305L92.5885 69.7192L92.5886 69.7192L91.1743 68.305ZM149.019 83.255L150.434 84.6692L150.434 84.6692L149.019 83.255ZM110.264 84.06V82.06H108.264V84.06H110.264ZM110.264 99.585H108.264V101.585H110.264V99.585ZM146.489 100.505L144.984 101.822L145.028 101.872L145.075 101.919L146.489 100.505ZM146.489 114.65L147.904 116.064L147.951 116.017L147.994 115.967L146.489 114.65ZM110.264 115.455V113.455H108.264V115.455H110.264ZM110.264 131.44H108.264V133.44H110.264V131.44ZM149.939 132.245L148.525 133.659L148.525 133.659L149.939 132.245ZM149.939 147.195L148.525 145.781L148.525 145.781L149.939 147.195ZM93.2443 146C92.8668 146 92.7068 145.899 92.5885 145.781L89.7601 148.609C90.7152 149.564 91.9352 150 93.2443 150V146ZM92.5885 145.781C92.4703 145.663 92.3693 145.502 92.3693 145.125H88.3693C88.3693 146.434 88.805 147.654 89.7601 148.609L92.5885 145.781ZM92.3693 145.125V70.375H88.3693V145.125H92.3693ZM92.3693 70.375C92.3693 69.9975 92.4703 69.8375 92.5885 69.7192L89.7601 66.8908C88.805 67.8459 88.3693 69.0658 88.3693 70.375H92.3693ZM92.5886 69.7192C92.7068 69.6009 92.8668 69.5 93.2443 69.5V65.5C91.9352 65.5 90.7152 65.9357 89.7601 66.8908L92.5886 69.7192ZM93.2443 69.5H146.949V65.5H93.2443V69.5ZM146.949 69.5C147.327 69.5 147.487 69.6009 147.605 69.7192L150.434 66.8908C149.478 65.9357 148.259 65.5 146.949 65.5V69.5ZM147.605 69.7192C147.723 69.8375 147.824 69.9975 147.824 70.375H151.824C151.824 69.0658 151.389 67.8459 150.434 66.8908L147.605 69.7192ZM147.824 70.375V81.185H151.824V70.375H147.824ZM147.824 81.185C147.824 81.5625 147.723 81.7225 147.605 81.8408L150.434 84.6692C151.389 83.7141 151.824 82.4942 151.824 81.185H147.824ZM147.605 81.8408C147.487 81.959 147.327 82.06 146.949 82.06V86.06C148.258 86.06 149.478 85.6243 150.434 84.6692L147.605 81.8408ZM146.949 82.06H110.264V86.06H146.949V82.06ZM108.264 84.06V99.585H112.264V84.06H108.264ZM110.264 101.585H144.419V97.585H110.264V101.585ZM144.419 101.585C144.709 101.585 144.842 101.66 144.984 101.822L147.994 99.188C147.063 98.1237 145.816 97.585 144.419 97.585V101.585ZM145.075 101.919C145.193 102.037 145.294 102.197 145.294 102.575H149.294C149.294 101.266 148.859 100.046 147.904 99.0908L145.075 101.919ZM145.294 102.575V112.58H149.294V102.575H145.294ZM145.294 112.58C145.294 112.83 145.224 113.059 144.984 113.333L147.994 115.967C148.828 115.014 149.294 113.863 149.294 112.58H145.294ZM145.075 113.236C144.957 113.354 144.797 113.455 144.419 113.455V117.455C145.729 117.455 146.948 117.019 147.904 116.064L145.075 113.236ZM144.419 113.455H110.264V117.455H144.419V113.455ZM108.264 115.455V131.44H112.264V115.455H108.264ZM110.264 133.44H147.869V129.44H110.264V133.44ZM147.869 133.44C148.247 133.44 148.407 133.541 148.525 133.659L151.354 130.831C150.398 129.876 149.179 129.44 147.869 129.44V133.44ZM148.525 133.659C148.643 133.777 148.744 133.938 148.744 134.315H152.744C152.744 133.006 152.309 131.786 151.354 130.831L148.525 133.659ZM148.744 134.315V145.125H152.744V134.315H148.744ZM148.744 145.125C148.744 145.502 148.643 145.663 148.525 145.781L151.354 148.609C152.309 147.654 152.744 146.434 152.744 145.125H148.744ZM148.525 145.781C148.407 145.899 148.247 146 147.869 146V150C149.179 150 150.398 149.564 151.354 148.609L148.525 145.781ZM147.869 146H93.2443V150H147.869V146ZM174.742 145.93L173.937 147.761L173.949 147.766L173.96 147.771L174.742 145.93ZM163.242 137.305L161.633 138.494L163.242 137.305ZM159.102 126.035H157.102V126.073L157.103 126.112L159.102 126.035ZM159.792 124.425L158.377 123.011L159.792 124.425ZM178.537 124.195L177.374 125.822L177.424 125.858L177.477 125.891L178.537 124.195ZM180.147 125.69L181.911 124.749L181.839 124.613L181.747 124.49L180.147 125.69ZM182.677 129.025L181.262 130.439L181.287 130.464L181.312 130.487L182.677 129.025ZM187.047 131.67L186.318 133.532L186.366 133.551L186.414 133.567L187.047 131.67ZM203.837 130.52L202.808 128.805L202.795 128.813L202.782 128.821L203.837 130.52ZM205.447 120.745L204.079 122.204L204.104 122.228L204.13 122.25L205.447 120.745ZM199.467 117.755L198.818 119.647L198.85 119.658L198.882 119.668L199.467 117.755ZM188.657 114.995L188.245 116.952L188.258 116.955L188.657 114.995ZM173.707 110.28L172.826 112.076L172.846 112.085L172.866 112.095L173.707 110.28ZM164.392 102.575L162.728 103.684L162.734 103.694L162.74 103.703L164.392 102.575ZM165.082 78.08L163.466 76.9016L163.457 76.9128L163.45 76.924L165.082 78.08ZM176.237 69.455L175.438 67.6213L176.237 69.455ZM207.057 68.42L206.402 70.31L206.413 70.3138L207.057 68.42ZM217.292 73.94L218.572 72.4036L217.292 73.94ZM223.502 81.3L221.734 82.2358L221.751 82.2672L221.768 82.2979L223.502 81.3ZM225.802 88.775H227.802V88.7438L227.801 88.7125L225.802 88.775ZM225.112 90.5L226.526 91.9142L226.58 91.8599L226.63 91.8016L225.112 90.5ZM206.022 90.73L205.127 92.5188L205.127 92.5189L206.022 90.73ZM204.412 89.235L202.482 89.7612L202.567 90.0743L202.747 90.3444L204.412 89.235ZM200.732 84.865L199.607 86.5188L199.645 86.5445L199.683 86.5683L200.732 84.865ZM185.207 84.75L186.267 86.446L186.276 86.4403L186.285 86.4345L185.207 84.75ZM183.942 94.18L182.43 95.4899L182.454 95.5177L182.479 95.5446L183.942 94.18ZM189.117 97.17L188.448 99.0549L188.457 99.0582L188.466 99.0614L189.117 97.17ZM199.122 99.815L198.695 101.769L198.725 101.775L198.754 101.781L199.122 99.815ZM216.027 104.76L215.184 106.574L215.198 106.58L215.211 106.586L216.027 104.76ZM225.457 112.35L223.768 113.421L223.774 113.431L223.78 113.44L225.457 112.35ZM223.962 137.535L222.385 136.305L222.381 136.309L223.962 137.535ZM211.772 146.16L212.486 148.028L211.772 146.16ZM193.832 147.15C186.335 147.15 180.259 146.098 175.523 144.089L173.96 147.771C179.345 150.055 185.995 151.15 193.832 151.15V147.15ZM175.546 144.099C170.724 141.98 167.202 139.298 164.85 136.116L161.633 138.494C164.495 142.365 168.64 145.433 173.937 147.761L175.546 144.099ZM164.85 136.116C162.457 132.879 161.236 129.504 161.1 125.958L157.103 126.112C157.273 130.54 158.813 134.678 161.633 138.494L164.85 136.116ZM161.102 126.035C161.102 125.985 161.109 125.967 161.112 125.96C161.116 125.951 161.135 125.91 161.206 125.839L158.377 123.011C157.568 123.821 157.102 124.857 157.102 126.035H161.102ZM161.206 125.839C161.409 125.636 161.528 125.62 161.632 125.62V121.62C160.356 121.62 159.248 122.14 158.377 123.011L161.206 125.839ZM161.632 125.62H176.122V121.62H161.632V125.62ZM176.122 125.62C177.017 125.62 177.33 125.791 177.374 125.822L179.699 122.568C178.67 121.833 177.373 121.62 176.122 121.62V125.62ZM177.477 125.891C177.869 126.136 178.226 126.462 178.547 126.89L181.747 124.49C181.148 123.691 180.431 123.021 179.597 122.499L177.477 125.891ZM178.382 126.631C179.102 127.981 180.072 129.249 181.262 130.439L184.091 127.611C183.135 126.655 182.418 125.699 181.911 124.749L178.382 126.631ZM181.312 130.487C182.68 131.764 184.366 132.769 186.318 133.532L187.775 129.808C186.201 129.191 184.973 128.433 184.041 127.563L181.312 130.487ZM186.414 133.567C188.52 134.269 191.009 134.59 193.832 134.59V130.59C191.287 130.59 189.254 130.297 187.679 129.773L186.414 133.567ZM193.832 134.59C198.42 134.59 202.2 133.89 204.891 132.219L202.782 128.821C201.026 129.91 198.136 130.59 193.832 130.59V134.59ZM204.866 132.235C207.675 130.549 209.287 128.066 209.287 124.885H205.287C205.287 126.458 204.598 127.731 202.808 128.805L204.866 132.235ZM209.287 124.885C209.287 122.645 208.441 120.708 206.764 119.24L204.13 122.25C204.905 122.929 205.287 123.752 205.287 124.885H209.287ZM206.814 119.286C205.259 117.827 202.922 116.72 200.051 115.842L198.882 119.668C201.531 120.477 203.181 121.363 204.079 122.204L206.814 119.286ZM200.115 115.863C197.316 114.903 193.618 113.963 189.055 113.035L188.258 116.955C192.742 117.867 196.251 118.767 198.818 119.647L200.115 115.863ZM189.069 113.038C183.348 111.833 178.516 110.303 174.547 108.465L172.866 112.095C177.177 114.091 182.312 115.703 188.245 116.952L189.069 113.038ZM174.587 108.484C170.776 106.614 167.961 104.255 166.043 101.447L162.74 103.703C165.115 107.181 168.511 109.959 172.826 112.076L174.587 108.484ZM166.056 101.466C164.174 98.6423 163.172 95.0643 163.172 90.615H159.172C159.172 95.6724 160.316 100.068 162.728 103.684L166.056 101.466ZM163.172 90.615C163.172 86.3361 164.356 82.565 166.714 79.236L163.45 76.924C160.594 80.955 159.172 85.5405 159.172 90.615H163.172ZM166.698 79.2583C169.144 75.9035 172.562 73.2367 177.035 71.2887L175.438 67.6213C170.405 69.8132 166.386 72.8965 163.466 76.9016L166.698 79.2583ZM177.035 71.2887C181.481 69.3527 186.831 68.35 193.142 68.35V64.35C186.418 64.35 180.499 65.4173 175.438 67.6213L177.035 71.2887ZM193.142 68.35C198.263 68.35 202.672 69.0186 206.402 70.31L207.711 66.53C203.468 65.0614 198.6 64.35 193.142 64.35V68.35ZM206.413 70.3138C210.288 71.6298 213.473 73.361 216.011 75.4764L218.572 72.4036C215.591 69.919 211.952 67.9702 207.7 66.5262L206.413 70.3138ZM216.011 75.4764C218.614 77.6452 220.499 79.9034 221.734 82.2358L225.269 80.3642C223.744 77.4833 221.489 74.8348 218.572 72.4036L216.011 75.4764ZM221.768 82.2979C223.092 84.5966 223.738 86.7701 223.803 88.8375L227.801 88.7125C227.712 85.8733 226.825 83.0634 225.235 80.3021L221.768 82.2979ZM223.802 88.775C223.802 88.8391 223.793 88.9657 223.593 89.1984L226.63 91.8016C227.351 90.961 227.802 89.9376 227.802 88.775H223.802ZM223.697 89.0858C223.637 89.1462 223.582 89.19 223.387 89.19V93.19C224.571 93.19 225.666 92.7738 226.526 91.9142L223.697 89.0858ZM223.387 89.19H208.207V93.19H223.387V89.19ZM208.207 89.19C207.604 89.19 207.195 89.0807 206.916 88.9411L205.127 92.5189C206.075 92.9926 207.123 93.19 208.207 93.19V89.19ZM206.916 88.9411C206.673 88.8197 206.383 88.5865 206.076 88.1256L202.747 90.3444C203.36 91.2635 204.143 92.027 205.127 92.5188L206.916 88.9411ZM206.341 88.7088C205.707 86.3854 204.056 84.5624 201.78 83.1617L199.683 86.5683C201.394 87.6209 202.196 88.7113 202.482 89.7612L206.341 88.7088ZM201.856 83.2111C199.509 81.6149 196.547 80.91 193.142 80.91V84.91C196.023 84.91 198.121 85.5085 199.607 86.5188L201.856 83.2111ZM193.142 80.91C189.559 80.91 186.487 81.556 184.128 83.0655L186.285 86.4345C187.76 85.4906 189.977 84.91 193.142 84.91V80.91ZM184.147 83.054C181.637 84.6227 180.447 87.1188 180.447 90.155H184.447C184.447 88.2845 185.096 87.1773 186.267 86.446L184.147 83.054ZM180.447 90.155C180.447 92.1655 181.116 93.9732 182.43 95.4899L185.453 92.8701C184.774 92.0868 184.447 91.2112 184.447 90.155H180.447ZM182.479 95.5446C183.865 97.0294 185.932 98.1621 188.448 99.0549L189.785 95.2851C187.548 94.4912 186.165 93.6306 185.404 92.8154L182.479 95.5446ZM188.466 99.0614C191.025 99.9409 194.445 100.842 198.695 101.769L199.548 97.861C195.364 96.9482 192.115 96.0857 189.767 95.2786L188.466 99.0614ZM198.754 101.781C205.64 103.067 211.097 104.677 215.184 106.574L216.869 102.946C212.369 100.857 206.557 99.1694 199.489 97.849L198.754 101.781ZM215.211 106.586C219.24 108.385 222.034 110.688 223.768 113.421L227.146 111.279C224.892 107.726 221.4 104.969 216.842 102.934L215.211 106.586ZM223.78 113.44C225.511 116.103 226.447 119.568 226.447 123.965H230.447C230.447 119.008 229.389 114.73 227.133 111.26L223.78 113.44ZM226.447 123.965C226.447 128.767 225.08 132.849 222.385 136.305L225.539 138.765C228.823 134.554 230.447 129.59 230.447 123.965H226.447ZM222.381 136.309C219.729 139.73 215.989 142.406 211.057 144.292L212.486 148.028C217.981 145.927 222.368 142.854 225.542 138.761L222.381 136.309ZM211.057 144.292C206.114 146.182 200.384 147.15 193.832 147.15V151.15C200.773 151.15 207.002 150.125 212.486 148.028L211.057 144.292ZM240.764 147.195L242.178 145.781L240.764 147.195ZM240.764 68.305L242.178 69.7192V69.7192L240.764 68.305ZM294.124 70.26L294.924 68.4269L294.124 70.26ZM303.439 78.195L301.707 79.1955L301.721 79.2185L301.735 79.241L303.439 78.195ZM304.934 97.63L303.145 96.7356L303.139 96.7489L303.132 96.7624L304.934 97.63ZM301.139 102.805L299.801 101.318L299.782 101.336L299.764 101.353L301.139 102.805ZM296.999 105.795L296.148 103.985L292.315 105.789L296.143 107.602L296.999 105.795ZM304.704 112.58L303.071 113.735L303.081 113.748L303.09 113.761L304.704 112.58ZM304.704 136.73L303.008 135.67L303.002 135.68L304.704 136.73ZM294.814 145.125L295.629 146.951L295.637 146.948L295.644 146.945L294.814 145.125ZM260.544 133.05H258.544V135.05H260.544V133.05ZM284.119 130.175L285.621 131.496L284.119 130.175ZM284.004 116.835L282.53 118.186L282.545 118.203L282.56 118.219L284.004 116.835ZM260.544 114.075V112.075H258.544V114.075H260.544ZM260.544 99.47H258.544V101.47H260.544V99.47ZM282.624 97.055L281.21 95.6408L281.193 95.658L281.176 95.6757L282.624 97.055ZM282.624 84.865L281.176 86.2443L281.21 86.2796L281.245 86.3133L282.624 84.865ZM260.544 82.45V80.45H258.544V82.45H260.544ZM242.834 146C242.457 146 242.297 145.899 242.178 145.781L239.35 148.609C240.305 149.564 241.525 150 242.834 150V146ZM242.178 145.781C242.06 145.663 241.959 145.502 241.959 145.125H237.959C237.959 146.434 238.395 147.654 239.35 148.609L242.178 145.781ZM241.959 145.125V70.375H237.959V145.125H241.959ZM241.959 70.375C241.959 69.9975 242.06 69.8375 242.178 69.7192L239.35 66.8908C238.395 67.8459 237.959 69.0658 237.959 70.375H241.959ZM242.178 69.7192C242.297 69.6009 242.457 69.5 242.834 69.5V65.5C241.525 65.5 240.305 65.9357 239.35 66.8908L242.178 69.7192ZM242.834 69.5H277.909V65.5H242.834V69.5ZM277.909 69.5C284.337 69.5 289.444 70.4 293.324 72.0931L294.924 68.4269C290.371 66.44 284.668 65.5 277.909 65.5V69.5ZM293.324 72.0931C297.212 73.7897 299.96 76.1708 301.707 79.1955L305.171 77.1944C302.932 73.3192 299.469 70.4103 294.924 68.4269L293.324 72.0931ZM301.735 79.241C303.579 82.2464 304.544 85.8948 304.544 90.27H308.544C308.544 85.2919 307.44 80.8902 305.144 77.149L301.735 79.241ZM304.544 90.27C304.544 92.7662 304.06 94.9056 303.145 96.7356L306.723 98.5244C307.955 96.0611 308.544 93.2938 308.544 90.27H304.544ZM303.132 96.7624C302.236 98.6245 301.12 100.131 299.801 101.318L302.477 104.292C304.225 102.719 305.639 100.776 306.736 98.4976L303.132 96.7624ZM299.764 101.353C298.406 102.64 297.199 103.49 296.148 103.985L297.851 107.605C299.406 106.873 300.959 105.73 302.515 104.257L299.764 101.353ZM296.143 107.602C298.69 108.809 301.008 110.818 303.071 113.735L306.337 111.425C303.954 108.056 301.135 105.541 297.855 103.988L296.143 107.602ZM303.09 113.761C305.118 116.533 306.154 119.791 306.154 123.62H310.154C310.154 119.016 308.89 114.914 306.318 111.399L303.09 113.761ZM306.154 123.62C306.154 128.368 305.078 132.358 303.008 135.67L306.4 137.79C308.93 133.742 310.154 128.992 310.154 123.62H306.154ZM303.002 135.68C301.014 138.902 298.044 141.454 293.984 143.305L295.644 146.945C300.325 144.81 303.948 141.765 306.406 137.78L303.002 135.68ZM293.999 143.299C290.033 145.069 285.04 146 278.944 146V150C285.422 150 291.009 149.014 295.629 146.951L293.999 143.299ZM278.944 146H242.834V150H278.944V146ZM260.544 135.05H276.644V131.05H260.544V135.05ZM276.644 135.05C280.337 135.05 283.45 133.962 285.621 131.496L282.618 128.854C281.415 130.221 279.545 131.05 276.644 131.05V135.05ZM285.621 131.496C287.614 129.231 288.649 126.581 288.649 123.62H284.649C284.649 125.566 283.997 127.286 282.618 128.854L285.621 131.496ZM288.649 123.62C288.649 120.451 287.589 117.685 285.448 115.451L282.56 118.219C283.946 119.665 284.649 121.422 284.649 123.62H288.649ZM285.478 115.484C283.31 113.118 280.253 112.075 276.644 112.075V116.075C279.476 116.075 281.325 116.872 282.53 118.186L285.478 115.484ZM276.644 112.075H260.544V116.075H276.644V112.075ZM258.544 114.075V133.05H262.544V114.075H258.544ZM260.544 101.47H275.609V97.47H260.544V101.47ZM275.609 101.47C279.069 101.47 282.028 100.581 284.072 98.4343L281.176 95.6757C280.154 96.7486 278.436 97.47 275.609 97.47V101.47ZM284.038 98.4692C286.067 96.4408 287.039 93.8408 287.039 90.845H283.039C283.039 92.9092 282.402 94.4492 281.21 95.6408L284.038 98.4692ZM287.039 90.845C287.039 87.9069 286.053 85.3687 284.003 83.4167L281.245 86.3133C282.415 87.428 283.039 88.8764 283.039 90.845H287.039ZM284.072 83.4857C282.028 81.3386 279.069 80.45 275.609 80.45V84.45C278.436 84.45 280.154 85.1714 281.176 86.2443L284.072 83.4857ZM275.609 80.45H260.544V84.45H275.609V80.45ZM258.544 82.45V99.47H262.544V82.45H258.544ZM321.736 147.195L323.15 145.781L321.736 147.195ZM321.736 68.305L323.15 69.7192L323.15 69.7192L321.736 68.305ZM378.431 74.4L377.171 75.9535L377.183 75.9628L377.194 75.9719L378.431 74.4ZM383.031 107.52L381.403 106.358L381.395 106.369L381.388 106.38L383.031 107.52ZM372.681 116.03L371.866 114.204L369.864 115.097L370.937 117.008L372.681 116.03ZM388.551 144.32L390.34 143.426L390.318 143.383L390.295 143.341L388.551 144.32ZM388.091 147.31L389.505 148.724V148.724L388.091 147.31ZM367.966 146.965L366.479 148.303L366.514 148.342L366.552 148.379L367.966 146.965ZM366.471 144.895L368.26 144.001L368.253 143.988L368.247 143.975L366.471 144.895ZM353.361 119.595L355.137 118.675L354.577 117.595H353.361V119.595ZM341.516 119.595V117.595H339.516V119.595H341.516ZM341.516 103.38H339.516V105.38H341.516V103.38ZM362.906 100.735L361.522 99.291L361.507 99.3057L361.492 99.3208L362.906 100.735ZM363.021 86.245L361.547 87.5964L361.562 87.6128L361.577 87.6288L363.021 86.245ZM341.516 83.485V81.485H339.516V83.485H341.516ZM323.806 146C323.428 146 323.268 145.899 323.15 145.781L320.322 148.609C321.277 149.564 322.497 150 323.806 150V146ZM323.15 145.781C323.032 145.663 322.931 145.502 322.931 145.125H318.931C318.931 146.434 319.367 147.654 320.322 148.609L323.15 145.781ZM322.931 145.125V70.375H318.931V145.125H322.931ZM322.931 70.375C322.931 69.9975 323.032 69.8375 323.15 69.7192L320.322 66.8908C319.367 67.8459 318.931 69.0658 318.931 70.375H322.931ZM323.15 69.7192C323.268 69.6009 323.428 69.5 323.806 69.5V65.5C322.497 65.5 321.277 65.9357 320.322 66.8908L323.15 69.7192ZM323.806 69.5H355.086V65.5H323.806V69.5ZM355.086 69.5C364.679 69.5 371.962 71.7301 377.171 75.9535L379.69 72.8465C373.553 67.8699 365.273 65.5 355.086 65.5V69.5ZM377.194 75.9719C382.39 80.0589 385.056 85.8779 385.056 93.72H389.056C389.056 84.8488 385.972 77.7877 379.667 72.8281L377.194 75.9719ZM385.056 93.72C385.056 98.8232 383.803 102.998 381.403 106.358L384.658 108.682C387.625 104.529 389.056 99.5034 389.056 93.72H385.056ZM381.388 106.38C378.995 109.828 375.835 112.431 371.866 114.204L373.496 117.856C378.113 115.795 381.853 112.726 384.674 108.66L381.388 106.38ZM370.937 117.008L386.807 145.299L390.295 143.341L374.425 115.051L370.937 117.008ZM386.762 145.214C386.898 145.487 386.896 145.6 386.896 145.585H390.896C390.896 144.804 390.663 144.073 390.34 143.426L386.762 145.214ZM386.896 145.585C386.896 145.589 386.897 145.598 386.882 145.63C386.864 145.67 386.812 145.761 386.677 145.896L389.505 148.724C390.322 147.907 390.896 146.849 390.896 145.585H386.896ZM386.677 145.896C386.616 145.956 386.561 146 386.366 146V150C387.551 150 388.645 149.584 389.505 148.724L386.677 145.896ZM386.366 146H371.186V150H386.366V146ZM371.186 146C370.001 146 369.545 145.716 369.38 145.551L366.552 148.379C367.767 149.594 369.458 150 371.186 150V146ZM369.452 145.627C368.829 144.934 368.457 144.394 368.26 144.001L364.682 145.789C365.099 146.622 365.723 147.463 366.479 148.303L369.452 145.627ZM368.247 143.975L355.137 118.675L351.585 120.515L364.695 145.815L368.247 143.975ZM353.361 117.595H341.516V121.595H353.361V117.595ZM339.516 119.595V145.125H343.516V119.595H339.516ZM339.516 145.125C339.516 145.502 339.415 145.663 339.297 145.781L342.125 148.609C343.08 147.654 343.516 146.434 343.516 145.125H339.516ZM339.297 145.781C339.178 145.899 339.018 146 338.641 146V150C339.95 150 341.17 149.564 342.125 148.609L339.297 145.781ZM338.641 146H323.806V150H338.641V146ZM341.516 105.38H354.856V101.38H341.516V105.38ZM354.856 105.38C358.753 105.38 362.042 104.427 364.32 102.149L361.492 99.3208C360.243 100.57 358.165 101.38 354.856 101.38V105.38ZM364.29 102.179C366.602 99.9631 367.666 96.9825 367.666 93.49H363.666C363.666 96.1308 362.89 97.9802 361.522 99.291L364.29 102.179ZM367.666 93.49C367.666 90.08 366.646 87.1373 364.465 84.8612L361.577 87.6288C362.922 89.0327 363.666 90.92 363.666 93.49H367.666ZM364.495 84.8936C362.273 82.4697 358.89 81.485 354.856 81.485V85.485C358.335 85.485 360.395 86.3403 361.547 87.5964L364.495 84.8936ZM354.856 81.485H341.516V85.485H354.856V81.485ZM339.516 83.485V103.38H343.516V83.485H339.516ZM394.118 147.31L392.599 148.612L392.699 148.728L392.816 148.829L394.118 147.31ZM393.543 144.55L391.664 143.863L391.628 143.962L391.602 144.065L393.543 144.55ZM420.568 70.72L422.446 71.4075L422.475 71.3279L422.497 71.2462L420.568 70.72ZM421.948 68.535L423.276 70.0298L423.285 70.0216L421.948 68.535ZM445.063 68.535L443.648 69.9492L443.727 70.0275L443.813 70.0967L445.063 68.535ZM446.558 70.72L444.628 71.2462L444.65 71.3266L444.678 71.4049L446.558 70.72ZM473.468 144.55L471.589 145.235L471.628 145.342L471.679 145.444L473.468 144.55ZM472.893 147.31L474.307 148.724V148.724L472.893 147.31ZM454.378 147.195L452.872 148.512L452.96 148.612L453.061 148.7L454.378 147.195ZM453.343 145.585L455.24 144.953L455.226 144.911L455.211 144.871L453.343 145.585ZM448.858 133.855L450.726 133.141L450.234 131.855H448.858V133.855ZM418.153 133.855V131.855H416.763L416.278 133.157L418.153 133.855ZM413.783 145.585L411.908 144.887L411.896 144.919L411.885 144.953L413.783 145.585ZM412.748 147.195L414.162 148.609L414.209 148.562L414.253 148.512L412.748 147.195ZM422.868 117.295L420.979 116.637L420.053 119.295H422.868V117.295ZM444.258 117.295V119.295H447.093L446.142 116.624L444.258 117.295ZM433.448 86.935L435.332 86.2641L433.427 80.9156L431.559 86.2768L433.448 86.935ZM395.843 146C395.779 146 395.652 145.991 395.419 145.791L392.816 148.829C393.657 149.549 394.68 150 395.843 150V146ZM395.636 146.008C395.437 145.776 395.428 145.649 395.428 145.585H391.428C391.428 146.748 391.879 147.771 392.599 148.612L395.636 146.008ZM395.428 145.585C395.428 145.332 395.453 145.154 395.483 145.035L391.602 144.065C391.479 144.56 391.428 145.071 391.428 145.585H395.428ZM395.421 145.237L422.446 71.4075L418.689 70.0325L391.664 143.863L395.421 145.237ZM422.497 71.2462C422.619 70.7987 422.859 70.4006 423.276 70.0298L420.619 67.0402C419.656 67.8961 418.976 68.9546 418.638 70.1938L422.497 71.2462ZM423.285 70.0216C423.596 69.7424 424.108 69.5 425.053 69.5V65.5C423.39 65.5 421.833 65.9475 420.61 67.0484L423.285 70.0216ZM425.053 69.5H442.073V65.5H425.053V69.5ZM442.073 69.5C443.029 69.5 443.446 69.7468 443.648 69.9492L446.477 67.1208C445.299 65.9431 443.723 65.5 442.073 65.5V69.5ZM443.813 70.0967C444.292 70.4797 444.523 70.861 444.628 71.2462L448.487 70.1938C448.132 68.8923 447.367 67.817 446.312 66.9733L443.813 70.0967ZM444.678 71.4049L471.589 145.235L475.347 143.865L448.437 70.0351L444.678 71.4049ZM471.679 145.444C471.68 145.447 471.684 145.455 471.688 145.473C471.692 145.491 471.698 145.527 471.698 145.585H475.698C475.698 144.928 475.564 144.271 475.256 143.656L471.679 145.444ZM471.698 145.585C471.698 145.589 471.699 145.598 471.684 145.63C471.666 145.67 471.613 145.761 471.478 145.896L474.307 148.724C475.124 147.907 475.698 146.849 475.698 145.585H471.698ZM471.478 145.896C471.418 145.956 471.363 146 471.168 146V150C472.352 150 473.447 149.584 474.307 148.724L471.478 145.896ZM471.168 146H457.023V150H471.168V146ZM457.023 146C456.159 146 455.818 145.798 455.695 145.69L453.061 148.7C454.164 149.666 455.586 150 457.023 150V146ZM455.883 145.878C455.418 145.347 455.271 145.046 455.24 144.953L451.445 146.217C451.721 147.044 452.264 147.817 452.872 148.512L455.883 145.878ZM455.211 144.871L450.726 133.141L446.989 134.569L451.474 146.299L455.211 144.871ZM448.858 131.855H418.153V135.855H448.858V131.855ZM416.278 133.157L411.908 144.887L415.657 146.283L420.027 134.553L416.278 133.157ZM411.885 144.953C411.854 145.046 411.707 145.347 411.242 145.878L414.253 148.512C414.861 147.817 415.404 147.044 415.68 146.217L411.885 144.953ZM411.333 145.781C411.357 145.757 411.315 145.814 411.095 145.879C410.869 145.945 410.513 146 409.988 146V150C411.466 150 413.057 149.714 414.162 148.609L411.333 145.781ZM409.988 146H395.843V150H409.988V146ZM422.868 119.295H444.258V115.295H422.868V119.295ZM446.142 116.624L435.332 86.2641L431.563 87.6059L442.373 117.966L446.142 116.624ZM431.559 86.2768L420.979 116.637L424.756 117.953L435.336 87.5931L431.559 86.2768ZM494.646 144.55L492.74 145.157L492.744 145.17L492.748 145.182L494.646 144.55ZM471.186 70.95L473.091 70.3426L473.069 70.274L473.043 70.2072L471.186 70.95ZM471.646 68.305L473.06 69.7192V69.7192L471.646 68.305ZM491.886 70.49L489.945 70.9751L489.958 71.0248L489.973 71.0738L491.886 70.49ZM508.101 123.62L506.188 124.204L508.094 130.449L510.012 124.208L508.101 123.62ZM524.431 70.49L522.558 69.7878L522.537 69.8445L522.519 69.9024L524.431 70.49ZM525.696 68.535L524.281 67.1208L524.24 67.1623L524.201 67.2063L525.696 68.535ZM544.556 68.305L543.037 69.6066L543.137 69.7234L543.254 69.8235L544.556 68.305ZM545.131 70.95L543.274 70.2072L543.247 70.274L543.225 70.3426L545.131 70.95ZM521.671 144.55L523.568 145.182L523.572 145.17L523.576 145.157L521.671 144.55ZM520.061 146.965L518.723 145.478L518.684 145.514L518.646 145.551L520.061 146.965ZM499.361 146C498.416 146 497.904 145.758 497.593 145.478L494.918 148.452C496.141 149.552 497.698 150 499.361 150V146ZM497.593 145.478C497.067 145.005 496.733 144.488 496.543 143.918L492.748 145.182C493.171 146.452 493.911 147.545 494.918 148.452L497.593 145.478ZM496.551 143.943L473.091 70.3426L469.28 71.5574L492.74 145.157L496.551 143.943ZM473.043 70.2072C472.953 69.9832 472.956 69.8958 472.956 69.915H468.956C468.956 70.5476 469.112 71.1501 469.329 71.6928L473.043 70.2072ZM472.956 69.915C472.956 69.8653 472.963 69.8472 472.966 69.8403C472.97 69.8311 472.989 69.7898 473.06 69.7192L470.231 66.8908C469.422 67.7006 468.956 68.7366 468.956 69.915H472.956ZM473.06 69.7192C473.263 69.5164 473.382 69.5 473.486 69.5V65.5C472.21 65.5 471.102 66.0202 470.231 66.8908L473.06 69.7192ZM473.486 69.5H487.746V65.5H473.486V69.5ZM487.746 69.5C488.586 69.5 488.982 69.725 489.206 69.9492L492.035 67.1208C490.879 65.965 489.359 65.5 487.746 65.5V69.5ZM489.206 69.9492C489.768 70.5108 489.915 70.8551 489.945 70.9751L493.826 70.0049C493.549 68.8983 492.853 67.9392 492.035 67.1208L489.206 69.9492ZM489.973 71.0738L506.188 124.204L510.013 123.036L493.798 69.9062L489.973 71.0738ZM510.012 124.208L526.342 71.0776L522.519 69.9024L506.189 123.032L510.012 124.208ZM526.303 71.1922C526.419 70.8826 526.679 70.4394 527.19 69.8637L524.201 67.2063C523.486 68.0106 522.902 68.8707 522.558 69.7878L526.303 71.1922ZM527.11 69.9492C527.334 69.725 527.731 69.5 528.571 69.5V65.5C526.957 65.5 525.437 65.965 524.281 67.1208L527.11 69.9492ZM528.571 69.5H542.831V65.5H528.571V69.5ZM542.831 69.5C542.909 69.5 542.933 69.5135 542.934 69.5136C542.935 69.5143 542.971 69.5297 543.037 69.6066L546.074 67.0034C545.245 66.0359 544.121 65.5 542.831 65.5V69.5ZM543.254 69.8235C543.355 69.9104 543.375 69.9555 543.37 69.9469C543.369 69.9434 543.365 69.9349 543.363 69.9238C543.36 69.9129 543.361 69.9087 543.361 69.915H547.361C547.361 68.6256 546.762 67.5621 545.857 66.7865L543.254 69.8235ZM543.361 69.915C543.361 69.8958 543.363 69.9832 543.274 70.2072L546.987 71.6928C547.205 71.1501 547.361 70.5476 547.361 69.915H543.361ZM543.225 70.3426L519.765 143.943L523.576 145.157L547.036 71.5574L543.225 70.3426ZM519.773 143.918C519.583 144.488 519.249 145.005 518.723 145.478L521.398 148.452C522.405 147.545 523.145 146.452 523.568 145.182L519.773 143.918ZM518.646 145.551C518.464 145.733 518.027 146 516.956 146V150C518.644 150 520.277 149.577 521.475 148.379L518.646 145.551ZM516.956 146H499.361V150H516.956V146ZM543.37 147.31L541.852 148.612L541.952 148.728L542.069 148.829L543.37 147.31ZM542.796 144.55L540.917 143.863L540.881 143.962L540.855 144.065L542.796 144.55ZM569.82 70.72L571.699 71.4075L571.728 71.3279L571.75 71.2462L569.82 70.72ZM571.201 68.535L572.529 70.0298L572.538 70.0216L571.201 68.535ZM594.315 68.535L592.901 69.9492L592.98 70.0275L593.066 70.0967L594.315 68.535ZM595.81 70.72L593.881 71.2462L593.903 71.3266L593.931 71.4049L595.81 70.72ZM622.721 144.55L620.841 145.235L620.881 145.342L620.932 145.444L622.721 144.55ZM622.146 147.31L623.56 148.724L623.56 148.724L622.146 147.31ZM603.63 147.195L602.125 148.512L602.213 148.612L602.313 148.7L603.63 147.195ZM602.596 145.585L604.493 144.953L604.479 144.911L604.464 144.871L602.596 145.585ZM598.111 133.855L599.979 133.141L599.487 131.855H598.111V133.855ZM567.406 133.855V131.855H566.016L565.531 133.157L567.406 133.855ZM563.036 145.585L561.161 144.887L561.149 144.919L561.138 144.953L563.036 145.585ZM562 147.195L563.415 148.609L563.462 148.562L563.506 148.512L562 147.195ZM572.12 117.295L570.232 116.637L569.306 119.295H572.12V117.295ZM593.51 117.295V119.295H596.346L595.395 116.624L593.51 117.295ZM582.701 86.935L584.585 86.2641L582.68 80.9156L580.812 86.2768L582.701 86.935ZM545.096 146C545.031 146 544.905 145.991 544.672 145.791L542.069 148.829C542.91 149.549 543.933 150 545.096 150V146ZM544.889 146.008C544.69 145.776 544.68 145.649 544.68 145.585H540.68C540.68 146.748 541.131 147.771 541.852 148.612L544.889 146.008ZM544.68 145.585C544.68 145.332 544.706 145.154 544.736 145.035L540.855 144.065C540.732 144.56 540.68 145.071 540.68 145.585H544.68ZM544.674 145.237L571.699 71.4075L567.942 70.0325L540.917 143.863L544.674 145.237ZM571.75 71.2462C571.872 70.7987 572.112 70.4006 572.529 70.0298L569.872 67.0402C568.909 67.8961 568.229 68.9546 567.891 70.1938L571.75 71.2462ZM572.538 70.0216C572.849 69.7424 573.361 69.5 574.305 69.5V65.5C572.643 65.5 571.086 65.9475 569.863 67.0484L572.538 70.0216ZM574.305 69.5H591.326V65.5H574.305V69.5ZM591.326 69.5C592.282 69.5 592.699 69.7468 592.901 69.9492L595.73 67.1208C594.552 65.9431 592.975 65.5 591.326 65.5V69.5ZM593.066 70.0967C593.545 70.4797 593.776 70.861 593.881 71.2462L597.74 70.1938C597.385 68.8923 596.62 67.817 595.565 66.9733L593.066 70.0967ZM593.931 71.4049L620.841 145.235L624.6 143.865L597.69 70.0351L593.931 71.4049ZM620.932 145.444C620.933 145.447 620.937 145.455 620.941 145.473C620.945 145.491 620.951 145.527 620.951 145.585H624.951C624.951 144.928 624.817 144.271 624.509 143.656L620.932 145.444ZM620.951 145.585C620.951 145.589 620.952 145.598 620.937 145.63C620.919 145.67 620.866 145.761 620.731 145.896L623.56 148.724C624.377 147.907 624.951 146.849 624.951 145.585H620.951ZM620.731 145.896C620.671 145.956 620.616 146 620.421 146V150C621.605 150 622.7 149.584 623.56 148.724L620.731 145.896ZM620.421 146H606.276V150H620.421V146ZM606.276 146C605.412 146 605.071 145.798 604.948 145.69L602.313 148.7C603.417 149.666 604.839 150 606.276 150V146ZM605.136 145.878C604.671 145.347 604.524 145.046 604.493 144.953L600.698 146.217C600.974 147.044 601.517 147.817 602.125 148.512L605.136 145.878ZM604.464 144.871L599.979 133.141L596.242 134.569L600.727 146.299L604.464 144.871ZM598.111 131.855H567.406V135.855H598.111V131.855ZM565.531 133.157L561.161 144.887L564.91 146.283L569.28 134.553L565.531 133.157ZM561.138 144.953C561.107 145.046 560.96 145.347 560.495 145.878L563.506 148.512C564.114 147.817 564.657 147.044 564.933 146.217L561.138 144.953ZM560.586 145.781C560.61 145.757 560.568 145.814 560.348 145.879C560.122 145.945 559.766 146 559.241 146V150C560.719 150 562.31 149.714 563.415 148.609L560.586 145.781ZM559.241 146H545.096V150H559.241V146ZM572.12 119.295H593.51V115.295H572.12V119.295ZM595.395 116.624L584.585 86.2641L580.816 87.6059L591.626 117.966L595.395 116.624ZM580.812 86.2768L570.232 116.637L574.009 117.953L584.589 87.5931L580.812 86.2768Z" fill="white" mask="url(#path-24-outside-1_160_43)"/>
</svg>
