<svg width="280" height="186" viewBox="0 0 280 186" fill="none" xmlns="http://www.w3.org/2000/svg">
<path d="M11.4532 49.9395H15.866C17.1798 49.914 18.3251 49.4792 19.1672 48.7119C20.0094 47.9446 20.481 46.8703 20.5147 45.5659V33.1101C20.5147 31.8313 20.0767 30.7826 19.2009 29.9897C18.3588 29.1969 17.1798 28.7876 15.765 28.7876H11.4532C11.2511 28.7876 11.1163 28.8899 11.1163 29.0434V49.6838C11.1163 49.8372 11.2511 49.9395 11.4532 49.9395ZM0.269486 56.9475C0.101057 56.8197 0 56.6918 0 56.5383V22.1888C0 22.0354 0.0336856 21.8564 0.269486 21.7796C0.437915 21.6517 0.606344 21.575 0.808459 21.575H15.7313C18.8977 21.575 21.66 22.0354 24.0854 22.905C26.5107 23.7746 28.3635 25.0279 29.6772 26.6136C30.9909 28.2249 31.6647 30.0665 31.6647 32.1637V46.589C31.6647 48.6863 31.0246 50.5534 29.6772 52.1391C28.3635 53.7505 26.5107 54.9781 24.0854 55.8477C21.66 56.7174 18.8641 57.1777 15.7313 57.1777H0.808459C0.606344 57.1777 0.370544 57.1777 0.269486 57.0499V56.9475Z" fill="white"/>
<path d="M65.9568 28.6078C65.7884 28.7357 65.62 28.8124 65.4178 28.8124H48.1707C47.9686 28.8124 47.8338 28.9147 47.8338 29.0682V35.4112C47.8338 35.5647 47.9686 35.667 48.1707 35.667H58.6133C58.8154 35.667 59.0512 35.7437 59.1523 35.8716C59.2533 35.9995 59.4218 36.1273 59.4218 36.2808V42.2913C59.4218 42.4448 59.3207 42.6238 59.1523 42.7005C58.9839 42.7773 58.8154 42.9052 58.6133 42.9052H48.1707C47.9686 42.9052 47.8338 43.0075 47.8338 43.1609V49.6574C47.8338 49.8109 47.9686 49.9132 48.1707 49.9132H65.4178C65.62 49.9132 65.8558 49.9899 65.9568 50.1178C66.0579 50.2457 66.2263 50.3735 66.2263 50.527V56.5375C66.2263 56.691 66.1252 56.87 65.9568 56.9468C65.7884 57.0235 65.62 57.1514 65.4178 57.1514H37.526C37.3239 57.1514 37.0881 57.1258 36.987 56.9468C36.8186 56.8189 36.7175 56.691 36.7175 56.5375V22.1881C36.7175 22.0346 36.7512 21.8556 36.987 21.7788C37.1554 21.651 37.3239 21.5742 37.526 21.5742H65.4178C65.62 21.5742 65.8558 21.651 65.9568 21.7788C66.0916 21.9067 66.2263 22.0346 66.2263 22.1881V28.1986C66.2263 28.352 66.1252 28.5311 65.9568 28.6078Z" fill="white"/>
<path d="M125.918 48.8659C126.76 48.2265 127.164 47.2545 127.164 46.0269C127.164 44.7992 126.726 43.904 125.918 43.2134C125.109 42.5484 123.964 42.2159 122.515 42.2159H117.9C117.698 42.2159 117.564 42.3182 117.564 42.4717V49.582C117.564 49.7355 117.698 49.8378 117.9 49.8378H122.482C123.93 49.8378 125.076 49.5053 125.918 48.8403V48.8659ZM117.564 29.044V35.4893C117.564 35.6427 117.698 35.745 117.9 35.745H121.842C123.425 35.745 124.604 35.4125 125.412 34.8499C126.255 34.2616 126.659 33.392 126.659 32.2666C126.659 31.1412 126.221 30.2972 125.379 29.6834C124.537 29.0695 123.358 28.737 121.875 28.737H117.934C117.732 28.737 117.597 28.8393 117.597 28.9928L117.564 29.044ZM133.969 54.5695C131.139 56.2831 127.434 57.1016 122.953 57.1016H107.323C107.121 57.1016 106.885 57.076 106.784 56.8969C106.616 56.7691 106.515 56.6412 106.515 56.4877V22.1638C106.515 22.0104 106.548 21.8313 106.784 21.7546C106.953 21.6267 107.121 21.55 107.323 21.55H121.808C126.827 21.55 130.768 22.3429 133.43 23.9542C136.158 25.5655 137.539 28.0465 137.539 31.4482C137.539 34.8499 135.956 37.075 132.891 38.5585C132.587 38.6608 132.587 38.7887 132.857 38.891C136.495 40.6558 138.314 43.3925 138.314 47.1011C138.314 50.8097 136.866 52.9326 134.036 54.595V54.5183L133.969 54.5695Z" fill="white"/>
<path d="M154.146 29.0433V36.2559C154.146 36.4094 154.281 36.5117 154.483 36.5117H159.132C160.58 36.5117 161.726 36.1792 162.568 35.5142C163.41 34.8492 163.882 33.9028 163.882 32.7007C163.882 31.4986 163.444 30.5523 162.568 29.8362C161.726 29.1712 160.547 28.8131 159.132 28.8131H154.483C154.281 28.8131 154.146 28.9154 154.146 29.0689V29.0433ZM163.78 56.6405L157.515 43.1872C157.414 43.0593 157.347 42.957 157.178 42.957H154.517C154.315 42.957 154.18 43.0593 154.18 43.2128V56.5126C154.18 56.6661 154.079 56.8451 153.911 56.9219C153.742 56.9986 153.574 57.1265 153.372 57.1265H143.872C143.67 57.1265 143.434 57.1009 143.333 56.9219C143.165 56.794 143.064 56.6661 143.064 56.5126V22.1887C143.064 22.0353 143.097 21.8562 143.333 21.7795C143.502 21.6516 143.67 21.5749 143.872 21.5749H161.018C163.78 21.5749 166.24 22.0608 168.362 22.956C170.484 23.9024 172.101 25.1812 173.28 26.8437C174.425 28.4806 175.032 30.4244 175.032 32.5729C175.032 34.7213 174.425 36.5628 173.246 38.1486C172 39.7599 170.349 40.962 168.227 41.7549C168.059 41.7549 168.025 41.8828 168.092 42.0874L175.402 56.4103C175.402 56.487 175.436 56.5382 175.436 56.6661C175.436 56.9986 175.166 57.1265 174.661 57.1265H164.69C164.218 57.1265 163.915 56.9986 163.848 56.6405H163.814H163.78Z" fill="white"/>
<path d="M193.626 45.3867H200.801C200.902 45.3867 200.97 45.3867 201.104 45.31C201.205 45.2844 201.239 45.1821 201.138 45.0798L197.399 32.4961C197.399 32.3682 197.264 32.2659 197.23 32.2659C197.129 32.2659 197.062 32.3426 197.062 32.4961L193.357 45.1565C193.323 45.31 193.357 45.4123 193.66 45.4123H193.626V45.3867ZM204.608 56.5637L203.294 52.0878C203.294 51.9599 203.125 51.8576 202.957 51.8576H191.639C191.47 51.8576 191.335 51.9343 191.302 52.0878L189.988 56.5637C189.887 56.9474 189.617 57.152 189.146 57.152H179.31C178.703 57.152 178.501 56.9218 178.636 56.5126L190.594 22.1375C190.729 21.805 191.032 21.626 191.538 21.626H203.226C203.732 21.626 204.035 21.7794 204.17 22.1375L216.128 56.5126V56.7427C216.162 57.0752 215.96 57.2031 215.454 57.2031H205.517C205.012 57.2031 204.742 56.9729 204.675 56.6149H204.641L204.608 56.5637Z" fill="white"/>
<path d="M223.27 56.6412L211.783 22.2661V22.0359C211.783 21.7034 212.052 21.5756 212.557 21.5756H222.865C223.371 21.5756 223.64 21.7802 223.707 22.1638L229.468 43.8528C229.468 43.9552 229.603 43.9807 229.636 43.9807C229.737 43.9807 229.805 43.9552 229.805 43.8528L235.396 22.1638C235.396 21.7802 235.733 21.5756 236.239 21.5756H246.277C246.917 21.5756 247.119 21.8058 247.052 22.215L235.43 56.59C235.295 56.9225 234.992 57.1016 234.487 57.1016H224.179C223.674 57.1016 223.337 56.8969 223.202 56.59H223.236L223.27 56.6412Z" fill="white"/>
<path d="M257.494 45.3867H264.669C264.77 45.3867 264.838 45.3867 264.972 45.31C265.073 45.2844 265.107 45.1821 265.006 45.0798L261.267 32.4961C261.267 32.3682 261.132 32.2659 261.099 32.2659C260.998 32.2659 260.93 32.3426 260.93 32.4961L257.225 45.1565C257.191 45.31 257.258 45.4123 257.528 45.4123H257.494V45.3867ZM268.476 56.5637L267.162 52.0878C267.162 51.9599 266.994 51.8576 266.825 51.8576H255.507C255.338 51.8576 255.204 51.9343 255.17 52.0878L253.856 56.5637C253.755 56.9474 253.486 57.152 253.014 57.152H243.178C242.571 57.152 242.369 56.9218 242.504 56.5126L254.462 22.1375C254.597 21.805 254.9 21.626 255.406 21.626H267.095C267.6 21.626 267.903 21.7794 268.038 22.1375L279.996 56.5126V56.7427C280.03 57.0752 279.828 57.2031 279.323 57.2031H269.352C268.88 57.2031 268.577 56.9729 268.509 56.6149L268.476 56.5637Z" fill="white"/>
<path d="M103.483 28.7875C103.685 28.7875 103.921 28.7108 104.022 28.5829C104.157 28.455 104.291 28.3271 104.291 28.1737V22.1632C104.291 22.0097 104.19 21.8307 104.022 21.7539C103.853 21.6772 103.685 21.5493 103.483 21.5493H91.0529C90.0423 21.5493 89.0317 21.6516 87.9874 21.8818C85.6968 22.3678 83.6083 23.3653 81.7893 24.8999C80.0039 26.4345 78.8923 28.0969 78.5217 29.8617C78.1512 31.6265 78.2186 33.3402 78.7912 34.9771C79.2965 36.5884 80.105 38.4555 81.1155 40.5272C81.9577 42.3176 82.9683 44.5172 83.2714 45.2589C83.5746 46.0006 83.743 46.7168 83.7093 47.3306C83.7093 47.9444 83.3725 48.5327 82.8335 48.9675C82.1598 49.5558 81.2503 49.8627 80.2734 49.9138H69.0897C68.8876 49.9138 68.6518 49.9906 68.5507 50.1185C68.4497 50.2463 68.2812 50.3742 68.2812 50.5277V56.5126C68.2812 56.6661 68.3823 56.8451 68.5507 56.9219C68.7192 56.9986 68.8876 57.1265 69.0897 57.1265H81.5198C85.0231 57.1265 88.1896 55.9755 90.8507 53.648C92.434 52.318 93.3435 50.9881 93.7477 49.5302C94.1183 48.0723 94.1856 46.6912 93.7477 45.3868C93.3772 44.0312 92.7708 42.3687 91.9287 40.297L91.2213 38.6601C90.3791 36.9209 89.3012 34.6957 88.9643 33.8005C88.6275 32.9054 88.459 32.0869 88.5264 31.4731C88.5601 30.8336 88.9643 30.271 89.5033 29.8106C90.2781 29.1712 91.1539 28.8131 92.1308 28.8131L103.382 28.8898H103.517L103.483 28.7875Z" fill="white"/>
<path d="M17.3798 12.3929L17.9861 11.5489C11.4511 11.4721 8.92462 9.34926 12.1921 6.76601C14.5838 4.87334 19.5693 3.28759 24.4538 2.59702L24.9591 1.85529C19.064 2.46913 12.3943 4.74546 9.46359 6.91947C5.55604 9.88637 9.05936 12.3417 17.3461 12.4185L17.3798 12.3929Z" fill="white"/>
<path d="M15.2236 13.9785H16.2005L17.0763 12.7764C8.14959 12.6997 4.44415 10.0653 8.72225 6.89378C11.8213 4.5663 18.6596 2.21325 25.1272 1.62498L25.5315 1.03672C18.289 1.34364 9.73282 3.82458 5.92633 6.79147C1.244 10.5512 5.11787 13.9529 15.2573 13.9529L15.2236 13.9785Z" fill="white"/>
<path d="M5.96006 14.9759C9.76655 15.8967 13.8089 15.7176 15.0215 15.6409L15.9311 14.3621H14.9205C4.27577 14.3621 0.199782 10.679 5.18528 6.81694C9.19389 3.69659 17.9185 1.1645 25.6999 0.908731L26.0705 0.473928C17.009 0.755272 6.93694 3.41525 2.38936 6.89367C-1.82137 10.1419 -0.372877 13.4669 5.99374 14.9247L5.92637 14.9759H5.96006Z" fill="white"/>
<path d="M18.0532 12.3926H19.7375L20.1417 11.5741H18.6596L18.0869 12.3926H18.0195H18.0532Z" fill="white"/>
<path d="M15.8972 15.6152C16.5036 15.6152 17.4131 15.5385 18.1879 15.4618L18.7605 14.3108C18.0868 14.3108 17.2783 14.3876 16.7394 14.3876L15.9646 15.6152H15.8972Z" fill="white"/>
<path d="M16.9753 13.9785C17.7501 13.9785 18.3901 13.9018 18.9628 13.9018L19.5355 12.7764H17.8175L17.0427 13.9274L16.9753 13.9785Z" fill="white"/>
<path d="M51.537 4.31032C51.7054 3.61975 52.0086 3.10822 52.4128 2.87803C52.817 2.59669 53.4234 2.44322 54.2992 2.44322H57.0615L57.5331 0.806318H53.7602C51.8738 0.806318 50.459 1.08766 49.5832 1.57362C48.7747 2.08515 48.101 3.08264 47.6968 4.54051L45.7767 11.5741C45.4062 12.8018 45.6083 13.7481 46.2483 14.362C46.922 14.9502 48.0337 15.2827 49.6506 15.2827H54.0297L54.5013 13.6458H51.638C50.6612 13.6458 50.0548 13.4412 49.819 13.0575C49.5158 12.6739 49.5158 12.0856 49.819 11.1904L50.8296 7.43068H55.4109L55.9835 5.48685H51.4022L51.7728 4.28475L51.6044 4.20802L51.537 4.31032Z" fill="white"/>
<path d="M67.2009 0.780744H60.8343L56.7583 15.2827H60.6322L64.2029 2.49438H64.8766C65.5503 2.49438 65.9545 2.62226 66.2577 2.85245C66.5272 3.08264 66.5609 3.38956 66.4261 3.82437L63.1586 15.2827H67.0325L70.3 3.72206C70.5695 2.8013 70.4011 2.08515 69.8284 1.5992C69.3231 1.06209 68.4473 0.831897 67.2683 0.831897H67.2009V0.780744Z" fill="white"/>
<path d="M84.1448 0.780744H73.0959L72.6916 2.44323H76.195L72.6243 15.2827H76.4981L80.0688 2.44323H83.6732L84.1448 0.780744Z" fill="white"/>
<path d="M91.7915 4.0034L91.3199 5.58916H88.3219L88.7935 4.0034C88.9619 3.41514 89.164 2.95476 89.4672 2.72457C89.7704 2.44323 90.242 2.34092 90.781 2.34092C91.3199 2.34092 91.6568 2.4688 91.7915 2.72457C91.96 3.00591 91.96 3.41514 91.7915 4.0034ZM91.2189 0.627282C89.4335 0.627282 88.0187 0.985356 86.8734 1.67593C85.7955 2.34092 85.0544 3.33841 84.6838 4.61724L81.6858 15.2827H85.5597L87.7492 7.50741H90.7473L88.5577 15.2827H92.4316L95.4296 4.61724C95.8001 3.2361 95.6991 2.26419 94.958 1.5992C94.3517 0.985355 93.0716 0.678435 91.1852 0.678435V0.627282H91.2189Z" fill="white"/>
<path d="M106.95 0.780904L104.053 11.2162C103.784 12.0346 103.548 12.5973 103.278 12.9298C102.975 13.2367 102.571 13.3902 102.066 13.3902C101.56 13.3902 101.19 13.1856 101.055 12.8787C100.954 12.5206 101.055 11.9835 101.224 11.2162L104.121 0.780904H100.247L97.2823 11.2673C96.9118 12.6485 97.0128 13.7483 97.7539 14.3877C98.5287 15.1294 99.6403 15.4619 101.426 15.4619C103.211 15.4619 104.626 15.1038 105.704 14.4133C106.714 13.7227 107.489 12.6229 107.893 11.2418L110.858 0.755327H106.95H107.018L106.95 0.780904Z" fill="white"/>
<path d="M134.37 4.02914C134.269 4.9499 134 6.30547 133.495 8.04468C132.989 9.83505 132.518 11.1395 132.114 12.0602C131.709 12.981 131.103 13.4414 130.295 13.4414C129.486 13.4414 129.116 13.0066 129.217 12.2137C129.217 11.3696 129.587 9.96293 130.126 8.04468C130.598 6.30547 131.103 5.00106 131.507 4.05472C131.979 3.13396 132.585 2.62243 133.326 2.62243C134.067 2.62243 134.505 3.08281 134.337 4.00357L134.37 4.02914ZM137.739 1.98301C137.065 1.08783 135.752 0.627446 133.865 0.627446C131.979 0.627446 130.396 1.13898 129.183 2.08532C127.97 3.08281 126.926 5.05221 126.117 8.04468C125.309 10.986 125.208 12.9554 125.848 13.9529C126.522 14.9504 127.768 15.4619 129.654 15.4619C131.541 15.4619 133.057 14.9504 134.303 13.9529C135.516 12.9042 136.56 10.986 137.369 8.04468C138.278 4.92433 138.379 2.85262 137.739 1.98301Z" fill="white"/>
<path d="M38.3656 13.134C38.0962 12.7503 38.0625 12.1621 38.3656 11.2669L39.4436 7.50711L40.0163 5.56328L40.3868 4.28445C40.5552 3.59388 40.8921 3.08234 41.2626 2.85215C41.6332 2.57081 42.2732 2.41735 43.0817 2.41735H45.8439L46.3155 0.780441H42.5427C40.6226 0.780441 39.2415 1.06178 38.3656 1.54774C37.4898 2.05927 36.8835 3.05676 36.4792 4.51464L34.5592 11.5482C34.1886 12.7759 34.357 13.7222 35.0308 14.3361C35.7045 14.9499 36.8161 15.2568 38.433 15.2568H42.8122L43.2838 13.6199H40.4205C39.4099 13.6199 38.8036 13.492 38.5341 13.1084L38.433 13.0317L38.3656 13.134Z" fill="white"/>
<path d="M120.324 4.6684C120.054 5.48685 119.751 6.04954 119.448 6.38203C119.077 6.74011 118.639 6.89357 118.033 6.89357H116.921L118.134 2.41765H119.145C119.818 2.41765 120.223 2.57111 120.357 2.87803C120.559 3.18495 120.526 3.79879 120.256 4.6684L120.324 4.71955V4.6684ZM120.66 0.780742H114.799L110.723 15.2827H114.597L116.483 8.58163H118.1C118.572 8.58163 118.875 8.65836 119.111 8.86297C119.313 9.06758 119.414 9.29777 119.279 9.68142L117.763 15.2827H121.435L123.018 9.78373C123.187 9.16989 123.12 8.63278 122.715 8.14682C122.345 7.71202 121.705 7.45625 120.829 7.37952C121.806 7.14933 122.547 6.79126 123.187 6.25415C123.793 5.71704 124.197 5.02647 124.467 4.13129C124.837 3.00591 124.669 2.16188 124.096 1.57362C123.49 1.03651 122.412 0.755165 120.795 0.755165H120.694L120.66 0.780742Z" fill="white"/>
<path d="M88.6722 129C88.5548 129 88.4588 128.963 88.3842 128.888C88.3095 128.813 88.2722 128.723 88.2722 128.616V118.2C88.2722 118.083 88.3095 117.987 88.3842 117.912C88.4588 117.837 88.5548 117.8 88.6722 117.8H89.9362C90.0855 117.8 90.1975 117.843 90.2722 117.928C90.3468 118.003 90.3948 118.061 90.4162 118.104L93.5042 123.864L96.6242 118.104C96.6455 118.061 96.6935 118.003 96.7682 117.928C96.8428 117.843 96.9548 117.8 97.1042 117.8H98.3522C98.4695 117.8 98.5655 117.837 98.6402 117.912C98.7148 117.987 98.7522 118.083 98.7522 118.2V128.616C98.7522 128.723 98.7148 128.813 98.6402 128.888C98.5655 128.963 98.4695 129 98.3522 129H97.0082C96.8908 129 96.7948 128.963 96.7202 128.888C96.6562 128.813 96.6242 128.723 96.6242 128.616V121.688L94.3842 125.96C94.3308 126.056 94.2615 126.141 94.1762 126.216C94.0908 126.28 93.9788 126.312 93.8402 126.312H93.1842C93.0348 126.312 92.9175 126.28 92.8322 126.216C92.7575 126.141 92.6935 126.056 92.6402 125.96L90.4002 121.688V128.616C90.4002 128.723 90.3628 128.813 90.2882 128.888C90.2135 128.963 90.1228 129 90.0162 129H88.6722ZM100.553 129C100.468 129 100.388 128.968 100.313 128.904C100.249 128.84 100.217 128.76 100.217 128.664C100.217 128.621 100.228 128.573 100.249 128.52L104.105 118.2C104.137 118.093 104.196 118.003 104.281 117.928C104.377 117.843 104.505 117.8 104.665 117.8H106.409C106.569 117.8 106.692 117.843 106.777 117.928C106.862 118.003 106.926 118.093 106.969 118.2L110.825 128.52C110.836 128.573 110.841 128.621 110.841 128.664C110.841 128.76 110.809 128.84 110.745 128.904C110.681 128.968 110.606 129 110.521 129H109.129C108.98 129 108.868 128.968 108.793 128.904C108.729 128.829 108.686 128.76 108.665 128.696L107.913 126.744H103.161L102.409 128.696C102.388 128.76 102.34 128.829 102.265 128.904C102.201 128.968 102.094 129 101.945 129H100.553ZM103.721 124.904H107.353L105.529 119.96L103.721 124.904ZM112.719 129C112.612 129 112.521 128.963 112.447 128.888C112.372 128.813 112.335 128.723 112.335 128.616V118.2C112.335 118.083 112.372 117.987 112.447 117.912C112.521 117.837 112.612 117.8 112.719 117.8H116.863C118.153 117.8 119.172 118.099 119.919 118.696C120.665 119.293 121.039 120.163 121.039 121.304C121.039 122.093 120.841 122.749 120.447 123.272C120.063 123.795 119.545 124.173 118.895 124.408L121.231 128.488C121.263 128.552 121.279 128.611 121.279 128.664C121.279 128.76 121.241 128.84 121.167 128.904C121.103 128.968 121.028 129 120.943 129H119.487C119.305 129 119.167 128.952 119.071 128.856C118.975 128.76 118.9 128.664 118.847 128.568L116.783 124.776H114.559V128.616C114.559 128.723 114.521 128.813 114.447 128.888C114.383 128.963 114.292 129 114.175 129H112.719ZM114.559 122.968H116.815C117.465 122.968 117.951 122.824 118.271 122.536C118.591 122.237 118.751 121.821 118.751 121.288C118.751 120.755 118.591 120.339 118.271 120.04C117.961 119.731 117.476 119.576 116.815 119.576H114.559V122.968ZM127.389 129.16C126.397 129.16 125.554 128.989 124.861 128.648C124.178 128.296 123.656 127.8 123.293 127.16C122.93 126.509 122.728 125.731 122.685 124.824C122.674 124.387 122.669 123.917 122.669 123.416C122.669 122.915 122.674 122.435 122.685 121.976C122.728 121.08 122.93 120.307 123.293 119.656C123.666 119.005 124.194 118.509 124.877 118.168C125.57 117.816 126.408 117.64 127.389 117.64C128.114 117.64 128.765 117.736 129.341 117.928C129.917 118.12 130.408 118.387 130.813 118.728C131.218 119.059 131.533 119.448 131.757 119.896C131.981 120.344 132.098 120.829 132.109 121.352C132.12 121.448 132.088 121.528 132.013 121.592C131.949 121.656 131.869 121.688 131.773 121.688H130.253C130.136 121.688 130.04 121.661 129.965 121.608C129.89 121.544 129.837 121.443 129.805 121.304C129.634 120.6 129.341 120.12 128.925 119.864C128.509 119.608 127.992 119.48 127.373 119.48C126.658 119.48 126.088 119.683 125.661 120.088C125.234 120.483 125.005 121.139 124.973 122.056C124.941 122.931 124.941 123.827 124.973 124.744C125.005 125.661 125.234 126.323 125.661 126.728C126.088 127.123 126.658 127.32 127.373 127.32C127.992 127.32 128.509 127.192 128.925 126.936C129.341 126.669 129.634 126.189 129.805 125.496C129.837 125.347 129.89 125.245 129.965 125.192C130.04 125.139 130.136 125.112 130.253 125.112H131.773C131.869 125.112 131.949 125.144 132.013 125.208C132.088 125.272 132.12 125.352 132.109 125.448C132.098 125.971 131.981 126.456 131.757 126.904C131.533 127.352 131.218 127.747 130.813 128.088C130.408 128.419 129.917 128.68 129.341 128.872C128.765 129.064 128.114 129.16 127.389 129.16ZM133.194 129C133.108 129 133.028 128.968 132.954 128.904C132.89 128.84 132.858 128.76 132.858 128.664C132.858 128.621 132.868 128.573 132.89 128.52L136.746 118.2C136.778 118.093 136.836 118.003 136.922 117.928C137.018 117.843 137.146 117.8 137.306 117.8H139.05C139.21 117.8 139.332 117.843 139.418 117.928C139.503 118.003 139.567 118.093 139.61 118.2L143.466 128.52C143.476 128.573 143.482 128.621 143.482 128.664C143.482 128.76 143.45 128.84 143.386 128.904C143.322 128.968 143.247 129 143.162 129H141.77C141.62 129 141.508 128.968 141.434 128.904C141.37 128.829 141.327 128.76 141.306 128.696L140.554 126.744H135.802L135.05 128.696C135.028 128.76 134.98 128.829 134.906 128.904C134.842 128.968 134.735 129 134.586 129H133.194ZM136.362 124.904H139.994L138.17 119.96L136.362 124.904ZM152.514 129.16C151.564 129.16 150.748 129.005 150.066 128.696C149.383 128.376 148.85 127.891 148.466 127.24C148.082 126.579 147.874 125.757 147.842 124.776C147.831 124.317 147.826 123.864 147.826 123.416C147.826 122.968 147.831 122.509 147.842 122.04C147.874 121.069 148.087 120.259 148.482 119.608C148.876 118.957 149.415 118.467 150.098 118.136C150.791 117.805 151.596 117.64 152.514 117.64C153.431 117.64 154.236 117.805 154.93 118.136C155.623 118.467 156.167 118.957 156.562 119.608C156.956 120.259 157.17 121.069 157.202 122.04C157.223 122.509 157.234 122.968 157.234 123.416C157.234 123.864 157.223 124.317 157.202 124.776C157.17 125.757 156.962 126.579 156.578 127.24C156.194 127.891 155.655 128.376 154.962 128.696C154.279 129.005 153.463 129.16 152.514 129.16ZM152.514 127.32C153.207 127.32 153.772 127.117 154.21 126.712C154.647 126.296 154.882 125.624 154.914 124.696C154.935 124.227 154.946 123.795 154.946 123.4C154.946 122.995 154.935 122.563 154.914 122.104C154.892 121.485 154.775 120.984 154.562 120.6C154.359 120.205 154.082 119.923 153.73 119.752C153.378 119.571 152.972 119.48 152.514 119.48C152.066 119.48 151.666 119.571 151.314 119.752C150.962 119.923 150.679 120.205 150.466 120.6C150.263 120.984 150.151 121.485 150.13 122.104C150.119 122.563 150.114 122.995 150.114 123.4C150.114 123.795 150.119 124.227 150.13 124.696C150.162 125.624 150.396 126.296 150.834 126.712C151.271 127.117 151.831 127.32 152.514 127.32ZM159.719 129C159.612 129 159.521 128.963 159.447 128.888C159.372 128.813 159.335 128.723 159.335 128.616V118.2C159.335 118.083 159.372 117.987 159.447 117.912C159.521 117.837 159.612 117.8 159.719 117.8H166.663C166.78 117.8 166.876 117.837 166.951 117.912C167.025 117.987 167.063 118.083 167.063 118.2V119.32C167.063 119.437 167.025 119.533 166.951 119.608C166.876 119.672 166.78 119.704 166.663 119.704H161.527V122.744H166.343C166.46 122.744 166.556 122.781 166.631 122.856C166.705 122.931 166.743 123.027 166.743 123.144V124.264C166.743 124.371 166.705 124.461 166.631 124.536C166.556 124.611 166.46 124.648 166.343 124.648H161.527V128.616C161.527 128.723 161.489 128.813 161.415 128.888C161.34 128.963 161.244 129 161.127 129H159.719ZM169.328 129C169.221 129 169.131 128.963 169.056 128.888C168.981 128.813 168.944 128.723 168.944 128.616V118.184C168.944 118.077 168.981 117.987 169.056 117.912C169.131 117.837 169.221 117.8 169.328 117.8H170.832C170.949 117.8 171.04 117.837 171.104 117.912C171.179 117.987 171.216 118.077 171.216 118.184V128.616C171.216 128.723 171.179 128.813 171.104 128.888C171.04 128.963 170.949 129 170.832 129H169.328ZM178.045 129.16C177.053 129.16 176.211 128.989 175.517 128.648C174.835 128.296 174.312 127.8 173.949 127.16C173.587 126.509 173.384 125.731 173.341 124.824C173.331 124.387 173.325 123.917 173.325 123.416C173.325 122.915 173.331 122.435 173.341 121.976C173.384 121.08 173.587 120.307 173.949 119.656C174.323 119.005 174.851 118.509 175.533 118.168C176.227 117.816 177.064 117.64 178.045 117.64C178.771 117.64 179.421 117.736 179.997 117.928C180.573 118.12 181.064 118.387 181.469 118.728C181.875 119.059 182.189 119.448 182.413 119.896C182.637 120.344 182.755 120.829 182.765 121.352C182.776 121.448 182.744 121.528 182.669 121.592C182.605 121.656 182.525 121.688 182.429 121.688H180.909C180.792 121.688 180.696 121.661 180.621 121.608C180.547 121.544 180.493 121.443 180.461 121.304C180.291 120.6 179.997 120.12 179.581 119.864C179.165 119.608 178.648 119.48 178.029 119.48C177.315 119.48 176.744 119.683 176.317 120.088C175.891 120.483 175.661 121.139 175.629 122.056C175.597 122.931 175.597 123.827 175.629 124.744C175.661 125.661 175.891 126.323 176.317 126.728C176.744 127.123 177.315 127.32 178.029 127.32C178.648 127.32 179.165 127.192 179.581 126.936C179.997 126.669 180.291 126.189 180.461 125.496C180.493 125.347 180.547 125.245 180.621 125.192C180.696 125.139 180.792 125.112 180.909 125.112H182.429C182.525 125.112 182.605 125.144 182.669 125.208C182.744 125.272 182.776 125.352 182.765 125.448C182.755 125.971 182.637 126.456 182.413 126.904C182.189 127.352 181.875 127.747 181.469 128.088C181.064 128.419 180.573 128.68 179.997 128.872C179.421 129.064 178.771 129.16 178.045 129.16ZM185.047 129C184.94 129 184.849 128.963 184.775 128.888C184.7 128.813 184.663 128.723 184.663 128.616V118.184C184.663 118.077 184.7 117.987 184.775 117.912C184.849 117.837 184.94 117.8 185.047 117.8H186.551C186.668 117.8 186.759 117.837 186.823 117.912C186.897 117.987 186.935 118.077 186.935 118.184V128.616C186.935 128.723 186.897 128.813 186.823 128.888C186.759 128.963 186.668 129 186.551 129H185.047ZM188.756 129C188.671 129 188.591 128.968 188.516 128.904C188.452 128.84 188.42 128.76 188.42 128.664C188.42 128.621 188.431 128.573 188.452 128.52L192.308 118.2C192.34 118.093 192.399 118.003 192.484 117.928C192.58 117.843 192.708 117.8 192.868 117.8H194.612C194.772 117.8 194.895 117.843 194.98 117.928C195.065 118.003 195.129 118.093 195.172 118.2L199.028 128.52C199.039 128.573 199.044 128.621 199.044 128.664C199.044 128.76 199.012 128.84 198.948 128.904C198.884 128.968 198.809 129 198.724 129H197.332C197.183 129 197.071 128.968 196.996 128.904C196.932 128.829 196.889 128.76 196.868 128.696L196.116 126.744H191.364L190.612 128.696C190.591 128.76 190.543 128.829 190.468 128.904C190.404 128.968 190.297 129 190.148 129H188.756ZM191.924 124.904H195.556L193.732 119.96L191.924 124.904ZM200.922 129C200.815 129 200.724 128.963 200.65 128.888C200.575 128.813 200.538 128.723 200.538 128.616V118.184C200.538 118.077 200.575 117.987 200.65 117.912C200.724 117.837 200.815 117.8 200.922 117.8H202.41C202.516 117.8 202.607 117.837 202.682 117.912C202.756 117.987 202.794 118.077 202.794 118.184V127.096H207.866C207.983 127.096 208.079 127.133 208.154 127.208C208.228 127.283 208.266 127.379 208.266 127.496V128.616C208.266 128.723 208.228 128.813 208.154 128.888C208.079 128.963 207.983 129 207.866 129H200.922Z" fill="white"/>
<g clip-path="url(#clip0_531_660)">
<path d="M73.7523 185.813C68.687 185.612 64.5428 184.226 61.3024 181.651C60.684 181.16 59.2104 179.685 58.716 179.063C57.4019 177.411 56.5086 175.803 55.9127 174.019C54.0791 168.527 55.0228 161.32 58.6119 153.411C61.6849 146.639 66.4267 139.923 74.6994 130.622C75.918 129.253 79.547 125.25 79.5704 125.25C79.5791 125.25 79.3813 125.593 79.1324 126.01C76.9814 129.613 75.1409 133.857 74.1382 137.531C72.5276 143.427 72.7219 148.486 74.7072 152.409C76.0768 155.111 78.4247 157.452 81.0649 158.747C85.687 161.011 92.454 161.198 100.718 159.295C101.287 159.163 129.481 151.678 163.372 142.662C197.262 133.646 224.996 126.274 225 126.28C225.01 126.288 146.262 159.984 105.384 177.466C98.9096 180.233 97.1784 180.932 94.1349 182.001C86.3548 184.733 79.3857 186.037 73.7523 185.813Z" fill="white"/>
</g>
<defs>
<clipPath id="clip0_531_660">
<rect width="170" height="60.5863" fill="white" transform="translate(55 125.252)"/>
</clipPath>
</defs>
</svg>
